<?xml version="1.0" encoding="UTF-8" standalone="no"?>
<!-- Created with Inkscape (http://www.inkscape.org/) -->

<svg
   xmlns:dc="http://purl.org/dc/elements/1.1/"
   xmlns:cc="http://creativecommons.org/ns#"
   xmlns:rdf="http://www.w3.org/1999/02/22-rdf-syntax-ns#"
   xmlns:svg="http://www.w3.org/2000/svg"
   xmlns="http://www.w3.org/2000/svg"
   xmlns:sodipodi="http://sodipodi.sourceforge.net/DTD/sodipodi-0.dtd"
   xmlns:inkscape="http://www.inkscape.org/namespaces/inkscape"
   id="svg2"
   height="797.94714"
   width="1186.5962"
   version="1.0"
   inkscape:version="0.92.1 r15371"
   sodipodi:docname="Outline_of_Ukraine.svg">
  <defs
     id="defs9" />
  <sodipodi:namedview
     pagecolor="#ffffff"
     bordercolor="#666666"
     borderopacity="1"
     objecttolerance="10"
     gridtolerance="10"
     guidetolerance="10"
     inkscape:pageopacity="0"
     inkscape:pageshadow="2"
     inkscape:window-width="1920"
     inkscape:window-height="1057"
     id="namedview7"
     showgrid="false"
     fit-margin-top="0.1"
     fit-margin-bottom="0.1"
     fit-margin-left="0.1"
     fit-margin-right="0.1"
     inkscape:zoom="0.18833929"
     inkscape:cx="1110.3324"
     inkscape:cy="-495.07433"
     inkscape:window-x="-8"
     inkscape:window-y="-8"
     inkscape:window-maximized="1"
     inkscape:current-layer="svg2" />
  <metadata
     id="metadata10">
    <rdf:RDF>
      <cc:Work
         rdf:about="">
        <dc:format>image/svg+xml</dc:format>
        <dc:type
           rdf:resource="http://purl.org/dc/dcmitype/StillImage" />
      </cc:Work>
    </rdf:RDF>
  </metadata>
  <path
     id="rect2817"
     d="m 721.45874,0.10095 c -2.6436,0.1109 -3.6772,2.8647 -4.7188,3.9062 -1.111,1.111 -1.962,3.0556 -3.9062,2.5 -1.9443,-0.5552 -3.6078,3.3301 -4.7188,4.7188 -1.111,1.3887 -3.6148,1.3712 -5.2812,1.0938 -1.6665,-0.2815 -2.771,-0.2813 -4.4375,-0.2813 -1.6665,0 -7.219,-1.3925 -9.7188,-2.7813 -2.4997,-1.3885 -7.4862,-1.6562 -8.875,-1.6562 -1.3887,0 -2.7745,0.2708 -4.7188,-0.5625 -1.9442,-0.8332 -2.2503,-1.1077 -4.75,0.2813 -2.4997,1.3884 -1.3715,6.962 -1.0938,8.9062 0.27774,1.9442 1.3747,2.4759 -1.125,3.0312 -2.4997,0.5556 -5,8.3578 -5,9.4688 3e-5,1.111 -1.639,2.7603 -2.75,3.5938 -1.111,0.8331 -4.1843,-0.2781 -6.4062,0 -2.222,0.2775 -3.0453,2.2257 -4.1562,2.7812 -1.111,0.5555 -3.6183,0.2778 -5.5625,0 -1.9443,-0.2777 -2.5035,-2.7678 -2.7812,-4.1562 -0.27773,-1.389 -1.1113,-1.9688 -2.5,-1.9688 -1.3888,0 -7.2158,-0.25 -11.938,-0.25 -4.7217,0 -11.396,0.2708 -15.562,-0.5625 -4.1662,-0.8332 -6.396,3.8718 -8.0625,6.0937 -1.6665,2.2221 -3.0523,0.2917 -4.7188,-1.375 -1.6665,-1.6663 -7.2155,-1.9409 -9.4375,-2.2187 -2.222,-0.2777 -2.757,2.4828 -3.3125,3.5937 -0.55548,1.1112 -3.0625,1.125 -3.0625,1.125 l -0.0625,0.625 c -0.19096,1.6158 -0.83887,3.1115 -1.875,3.6876 -1.2498,0.6941 -1.2604,0.8161 -0.84375,2.3437 0.41666,1.5276 -5.8438,3.3437 -5.8438,3.3437 v 0.4063 c 0.13891,1.6665 0.56923,3.9098 -1.375,4.1875 -1.9443,0.2777 -2.7814,0.8267 -4.0312,3.1875 -1.2499,2.3609 -1.3994,3.316 -2.0938,3.5937 -0.69437,0.278 -1.6631,0.844 -0.96875,2.0938 0.69436,1.2499 0.14924,2.3681 -0.40625,3.0625 -0.5555,0.6944 -0.14602,0.5522 -1.8125,0.9687 -1.6665,0.4167 -0.97561,1.1147 -0.28125,1.5313 0.69439,0.4166 1.5416,0.2813 1.125,1.5313 -0.41664,1.2496 -0.28839,3.316 -2.0938,3.5937 -1.80541,0.2777 -2.7777,0.2886 -2.5,3.3437 h -0.96875 c -0.24944,0.1498 -0.49331,0.3922 -0.75,0.625 -0.14082,1.1459 -0.37903,2.2659 -0.625,2.6876 -0.52225,0.3822 -1.0607,0.8565 -1.5312,1.3437 -0.0281,0.3062 -0.0414,0.601 0,0.9063 0.29912,2.1933 1.5246,2.9945 1.9375,3.1874 -0.69436,-0.2776 -0.68386,3.7536 0.84375,4.0313 1.52761,0.2777 2.2188,0.9724 2.2188,2.5 10e-6,1.5276 -0.28812,3.6006 0.40625,4.1563 0.69437,0.5551 1.3992,1.8021 0.84375,2.2187 -0.55551,0.4166 -1.2535,-0.4061 -1.5312,0.8437 -0.27772,1.25 -0.43736,1.2291 0.8125,2.0626 1.2499,0.833 1.8334,2.2397 2.25,3.9062 0.41663,1.6665 0.52775,1.3853 0.25,2.2188 -0.27776,0.8331 -0.1215,0.7015 0.15625,1.8124 0.27776,1.1113 0.125,1.375 0.125,1.375 -3e-5,0 -0.6945,2.0731 -1.25,2.9063 -0.55551,0.8333 -3.3125,2.7813 -3.3125,2.7813 2e-5,0 -0.18855,0.1042 -0.28125,0.1562 l -0.0625,0.062 -0.5625,1.0313 c -0.022,0.1411 -0.0816,0.2661 -0.0625,0.4374 l -0.28125,0.125 c -1.111,-1.6663 -6.1115,-5.2674 -10,-6.6562 -5.0298,-1.7967 -3.066,-4.4518 -3.3438,-8.0625 -0.27775,-3.6107 -6.1012,-7.4897 -11.656,-9.1563 -5.5549,-1.6663 -15.837,3.0593 -17.781,5.2813 -1.9443,2.222 -5.573,-1.396 -6.4062,-3.0625 -0.8332,-1.6665 -2.2088,-2.226 -6.375,-2.7812 -4.1662,-0.5557 -10.562,8.0452 -10.562,9.1562 0,1.111 -1.9342,0.5555 -4.1562,0 -2.2219,-0.5555 -2.7711,0.8543 -4.4375,1.6875 -1.6666,0.8333 -2.7847,-1.9585 -3.0625,-3.625 -0.2778,-1.6665 -0.82295,-2.7918 -1.6562,-3.625 -0.8332,-0.8332 -1.4062,-6.6668 -1.4062,-7.5 0,-0.8333 -1.6424,-2.757 -3.0312,-3.3125 -1.3887,-0.5555 -1.4168,-4.4623 -2.25,-6.4062 -0.8332,-1.9446 -2.5002,-1.1008 -5,-1.6563 -2.4997,-0.5555 -3.0417,1.389 -3.875,2.5 -0.8332,1.111 -2.2124,3.0695 -6.6562,3.625 -4.4439,0.5555 -9.1632,9.417 -9.7188,12.75 -0.5555,3.333 -1.4066,2.236 -3.9062,1.125 -2.4998,-1.111 -4.441,-10.004 -4.7188,-12.781 -0.2777,-2.7772 -4.7295,-2.222 -8.0625,-2.5 -3.333,-0.2776 -5.5312,2.7813 -5.5312,2.7813 -2.222,1.111 -1.674,0.5518 -5.5625,-2.7813 -3.8885,-3.3329 -2.2188,-3.875 -2.2188,-3.875 0,0 0.16665,-0.36 0.34375,-0.7812 0.033,-0.081 0.0305,-0.1953 0.0625,-0.2812 0.1058,-0.2848 0.23385,-0.5435 0.28125,-0.875 0.1303,-0.9697 -0.1587,-1.9688 -1.8125,-1.9688 -1.5319,0 -2.9251,0.9819 -4.4375,2.375 -1.7791,1.6369 -3.723,3.8668 -6.125,5.9688 -4.4439,3.8883 -3.865,1.6595 -5.5312,-0.5626 -1.6666,-2.2219 -4.4552,-3.889 -8.3438,-5 -3.8885,-1.1109 -3.3298,1.66 -2.2188,4.4376 1.1111,2.7771 0.56575,4.4583 -1.6562,6.125 -2.2219,1.6663 -2.782,3.3399 -7.7812,0.5624 -4.9995,-2.7772 1.0938,-7.2397 1.0938,-8.9062 0,-0.8601 -2.4718,-1.8508 -4.9062,-2.625 h -0.125 c -2.2545,-0.7128 -4.4375,-1.25 -4.4375,-1.25 0,0 -2.2086,-1.104 -3.875,0.5625 -0.2627,0.2626 -0.56555,0.5041 -0.90625,0.6875 h -0.0312 c -1.8259,0.9515 -4.6972,0.8691 -7.9375,0.4062 -0.6929,-0.099 -1.1916,-0.2398 -1.6562,-0.4062 h -0.15625 c -1.01,-0.3895 -1.4709,-0.9709 -1.6563,-1.6562 -0.087,-0.337 -0.1014,-0.7304 -0.062,-1.125 0.036,-0.4008 0.1069,-0.8025 0.2188,-1.25 0.5555,-2.2222 -0.5663,-2.2258 -3.3438,-2.7813 -2.7775,-0.5555 -1.6631,-6.0975 -2.2187,-8.875 -0.5555,-2.7775 -8.3304,-0.5555 -12.219,0 -3.8885,0.5555 -10.004,-1.6916 -12.781,-4.4687 -2.7774,-2.7777 -3.3478,-1.0938 -6.125,-1.0938 -2.7774,0 -6.0905,-0.5593 -8.3125,-2.7812 -2.222,-2.2222 -12.799,-2.2328 -16.688,-3.3438 -3.8886,-1.111 -6.0938,-3.875 -6.0938,-3.875 0,0 -1.6741,-2.771 -5.5625,-4.4375 -3.8885,-1.6665 -3.3406,-0.018 -5.5625,-3.9063 -2.222,-3.8883 -6.646,2.2258 -8.3125,2.7813 -1.6665,0.5555 -6.6601,-1.6563 -9.4375,-1.6563 -2.7775,0 -10.57,-0.01 -16.125,-0.5624 -5.555,-0.5556 -8.3302,-2.2087 -12.219,-3.875 -3.8884,-1.6667 -11.119,0 -15.562,2.2187 -4.444,2.2187 -18.334,2.7743 -20,2.2187 -1.6667,-0.5552 -7.2155,-1.1109 -9.4376,0 -2.2219,1.111 -4.9795,-0.5694 -8.3124,-1.125 -3.3333,-0.5552 -7.2428,10.57 -6.6876,11.125 0.5557,0.5555 -3.8718,4.4376 -6.0937,4.4376 -2.222,0 -5.007,1.6529 -5.5625,3.875 -0.5555,2.2219 -3.8789,4.4583 -6.6562,6.125 -2.7774,1.6662 -4.4448,0.5587 -5,-2.2188 -0.5555,-2.7775 -4.4585,-1.6805 -6.125,-1.125 -1.6667,0.5555 -2.7748,1.1143 -7.2188,-2.2188 -4.444,-3.3329 -6.111,4.4655 -5,6.6876 1.111,2.2219 -2.2188,3.875 -2.2188,3.875 0,0 -0.1424,0.2916 -0.2812,2.375 -0.1389,2.0829 1.2466,2.2048 2.2188,2.3437 0.9719,0.1389 -0.2882,2.4931 -0.8438,3.1875 -0.1682,0.2105 -0.017,0.653 0.2188,1.125 0.5412,1.0893 1.769,2.5189 2.1562,2.9062 0.5555,0.5556 0.01,1.8161 -0.6875,2.0938 -0.6944,0.2777 -0.1389,0.9619 0,1.6562 0.1389,0.6946 0.1282,1.1114 -0.8437,1.25 -0.9722,0.139 -2.3507,1.8232 -2.9063,3.9063 -0.5555,2.0831 1.0904,3.3125 2.0625,3.3125 0.9721,0 1.6771,0.8543 2.0938,1.6875 0.4166,0.8332 0.847,3.4584 1.125,3.875 0.2778,0.4166 0.5416,1.1043 0.125,1.9375 -0.4167,0.8333 1.2604,2.0973 2.0937,2.375 0.8332,0.2778 2.2051,2.4897 2.3437,2.9062 0.1391,0.4167 2.6494,1.6633 3.3438,2.2188 0.6943,0.5555 -0.132,2.1009 -0.6875,2.6562 -0.5555,0.5557 -0.1354,1.3648 0.2813,3.0313 0.4165,1.6665 1.0869,2.2396 1.7812,2.6563 0.6943,0.4165 0.9897,2.5073 0.1562,4.3124 -0.833,1.8053 0.9758,3.3335 1.5313,3.75 0.5555,0.4167 1.3718,1.6391 1.0937,2.75 -0.2775,1.1113 0.4133,1.8057 0.9688,2.5 0.5555,0.6946 1.8232,2.3752 2.6562,3.625 0.8335,1.25 5.2781,4.4585 6.25,4.875 0.9723,0.4167 0.8436,1.6391 -0.4062,2.75 -1.2499,1.1113 -6.3993,-0.2673 -8.3438,-0.4062 -1.9439,-0.1389 -2.7847,1.2678 -3.0624,3.9062 -0.2269,2.1515 1.5801,2.5626 2.7812,2.5626 0.2723,0 0.5085,-0.036 0.6875,-0.063 0.9721,-0.1386 0.4166,1.7885 0,3.5938 -0.4167,1.8054 2.382,2.4861 2.9375,2.625 0.5555,0.1389 0.6805,0.8543 0.125,1.6875 -0.5555,0.8333 0.6945,3.6113 1.25,5 0.5554,1.3888 0.8438,1.5313 0.8438,1.5313 0,0 -0.239,0.7144 -0.5,1.5937 l 0.062,0.062 c 0,0 -0.066,0.1875 -0.1874,0.5 -0.3848,1.4821 -0.7441,3.2876 0.031,4.2188 1.3887,1.6662 1.2396,2.2257 0.4062,2.7812 -0.8333,0.5555 -2.7813,2.2362 -4.0312,2.375 -1.2499,0.1389 -3.3369,1.2502 -2.7812,2.5 0.5552,1.2499 0.2776,1.9306 0,2.625 -0.2781,0.6944 -1.7781,4.1771 -2.75,4.5938 -0.9722,0.4165 -6.9449,-0.5626 -8.75,-0.5626 -1.8056,0 -9.3092,-0.2948 -10.281,2.3438 -0.9721,2.6386 -1.2536,4.7397 -2.7813,5.1562 -1.5275,0.4167 -1.7952,0.118 -2.9062,2.0626 -1.111,1.9439 -4.6078,4.4444 -5.7188,5 -0.7798,0.3903 -3.5253,2.0042 -5.3437,3.2812 -0.7692,0.5403 -1.3879,0.9827 -1.5937,1.3125 -0.6947,1.111 -6.656499,5.42 -7.906299,6.5313 -1.2499,1.1109 -4.5868,4.5833 -5.2813,5 -0.6943,0.4165 -2.361,1.7915 -2.5,2.625 -0.1385,0.833 -0.9619,1.8021 -1.6562,2.2187 -0.6944,0.4166 -3.6217,1.4136 -5.8438,4.4687 -2.2219,3.0553 -8.6181,10.816 -9.3124,11.094 -0.6947,0.2777 -2.0799,0.2779 -2.2188,1.25 -0.1388,0.9721 -0.5557,3.2047 -1.25,3.3438 -0.6944,0.1385 -3.0659,0.5489 -3.3438,1.9374 -0.2775,1.3889 -0.809,3.3508 -1.7812,3.9063 -0.9721,0.5555 -2.1043,2.4722 -2.9375,2.75 -0.8333,0.2777 -2.6354,-0.2743 -3.4687,1.5313 -0.8335,1.805 -2.3405,5.0036 -4.5626,6.5312 -2.2219,1.5276 -5.8469,6.8021 -4.875,8.4688 0.9723,1.6662 2.3646,5.2883 1.5313,7.0937 -0.8332,1.8054 -0.5485,2.9168 0.5625,3.75 1.111,0.8332 1.9305,2.0628 1.375,4.5625 -0.5555,2.4997 -0.5555,3.889 0,5 0.5555,1.111 0.8471,3.7676 -0.125,5.1562 -0.9721,1.3888 -2.0798,4.0141 -2.2188,5.125 -0.1386,1.1111 -0.2952,0.5661 -1.4062,0.8438 -1.111,0.2777 -3.0486,0.837 -3.1875,2.7812 -0.1389,1.9444 0.014,2.2051 2.375,3.5938 2.3609,1.3887 4.1495,3.757 4.8437,4.3125 0.6947,0.5555 0.9896,1.2532 1.4063,1.5313 0.4166,0.2775 0.9514,2.08 0.8125,3.4687 -0.1389,1.3887 0.42,3.0555 -0.9688,2.5 -1.3884,-0.5555 -1.5209,-1.382 -1.9374,-1.9375 -0.4167,-0.5555 -0.9791,-0.9688 -1.8126,-0.9688 -0.833,0 -4.8716,0.6946 -5.8437,0 -0.9721,-0.6943 -2.7502,-4.597 -4,-4.875 -1.2499,-0.2776 -2.8023,-0.1213 -3.2187,1.4063 -0.4167,1.5276 -0.8161,3.3126 -1.0938,4.5625 -0.2778,1.2499 -0.2955,3.4823 -1.4062,3.3438 -1.1113,-0.139 -2.9167,-0.5485 -3.75,0.5624 -0.8335,1.1111 -0.962,3.8785 -1.6563,4.1563 -0.1736,0.069 -0.3738,0.1409 -0.5625,0.2187 -0.2033,0.084 -0.3576,0.1869 -0.5312,0.3438 -0.3107,0.2802 -0.5626,0.7301 -0.5626,1.5312 0,1.6667 -0.8507,2.7709 -1.4062,3.1876 -0.5555,0.4164 -3.3092,1.5246 -3.0312,4.7187 0.2777,3.1941 0.2498,4.1668 -1,5 -1.25,0.8332 -1.9236,1.2571 -2.0626,3.0625 -0.1386,1.8054 -0.9655,7.0695 -4.4374,7.625 -3.4721003,0.5555 -3.6286003,2.6493 -3.9063003,3.3438 -0.2778,0.6942 -1.2396,1.3855 -2.9063,2.2187 -1.6664,0.8332 -3.0488,1.2364 -3.1874,3.875 -0.139,2.6386 -0.2917,3.3404 0.125,4.3125 0.4165,0.9721 0.2915,1.132 -0.125,1.6875 -0.4167,0.5555 -1.2674,0.8126 -1.4063,2.0625 -0.1389,1.2498 -0.2813,3.632 -0.2813,4.1875 0,0.5555 -1.3782,3.6041 0.8438,3.1875 2.222,-0.4166 2.9167,-0.5764 3.75,-0.4375 0.8332,0.1389 3.8887,0.9863 2.5,2.375 -1.3887,1.3887 -1.5276,3.8889 0,3.75 1.5276,-0.1389 3.3229003,-1.1006 2.9062003,0.84375 -0.4164,1.9442 -0.8367003,2.9097 -0.2812,4.4375 0.5555,1.5275 2.2223,4.2916 2.5,5.125 0.2778,0.8332 0.7015,2.2429 1.8125,1.6875 1.111,-0.5555 1.6807,-0.1666 2.375,0.25 0.6944,0.4167 2.2116,0.7152 2.9063,0.4375 0.6942,-0.2779 1.1146,-0.41315 1.5312,0.28125 0.4166,0.6943 1.3289,3.4158 1.9375,3.75 4.3051,2.3608 3.5412,6.3984 3.3437,7.2188 -0.8331,3.4718 2.3616,4.1702 3.75,4.0312 1.3889,-0.1389 7.4828,-2.5069 8.5938,-1.8125 1.111,0.6944 2.9375,3.1875 2.9375,3.1875 0,0 0.7142,1.8014 1.3437,3.4062 h 18.063 c 1.1033,-1.0744 2.5446,-1.6971 3.3437,-1.4688 0.7159,0.20453 1.2828,0.93273 1.8125,1.4688 H 296.71169 c 1.1967,-2.5714 3.4662,-7.0337 4.4687,-6.0312 1.3888,1.3887 3.6113,4.7186 5,4.7188 1.3888,-10e-5 2.8021,-2.2364 1.9687,-3.625 -0.8333,-1.3888 -3.9022,-4.7188 -1.125,-4.7188 2.7776,0 6.1148,-0.55205 7.7813,0.28125 1.6665,0.8333 4.7085,2.2222 6.375,2.5 1.6665,0.2778 3.625,-0.5417 3.625,-1.375 0,-0.8333 1.1113,-3.0555 2.5,-2.5 1.3887,0.5554 2.4896,1.9167 4.1563,2.75 1.6662,0.8333 6.1217,1.4165 8.3437,-0.25 2.222,-1.6666 0.8405,-3.3404 3.0625,-3.0625 2.222,0.2777 9.6948,0.8397 12.75,-4.4375 l 1.8126,-0.4375 c 1.6665,-0.8334 3.1381,-1.4988 3.75,-1.375 0.204,0.0409 0.28125,0.16325 0.28125,0.40625 0,0.9721 -1.2499,1.8126 1.25,3.0625 2.4997,1.2498 4.3196,1.5207 6.125,0.6875 1.8052,-0.8333 3.8681,-0.1249 4.5625,1.125 0.6944,1.2498 2.0975,2.9097 3.625,3.1875 1.5276,0.2777 2.066,2.0728 2.3438,2.9062 0.2778,0.8332 1.6672,5.1354 6.25,5.9688 0.49772,0.0905 0.88681,0.14648 1.3438,0.21875 h 786.80996 c 0.8921,-0.65694 2.3931,-1.2082 3.1875,-1.8438 1.3887,-1.111 0.5555,-1.9518 0,-5.5625 -0.5555,-3.6107 3.8788,-13.326 6.6562,-14.438 2.7776,-1.111 2.2256,-5.8302 0.2813,-7.2188 -1.9441,-1.3888 -3.6078,0.56595 -4.7188,0.84375 -1.1111,0.2777 -2.4865,1.1074 -3.875,-0.28125 -1.3889,-1.3887 1.6426,-4.4517 3.0313,-5.5625 1.3888,-1.1111 -0.5453,-3.8926 -1.6563,-5.2812 -1.1109,-1.3888 -3.316,-9.726 -3.5937,-12.781 -0.2779,-3.0552 -3.0731,-2.4827 -3.9063,-3.5937 -0.8333,-1.111 0.014,-2.7988 3.625,-4.1875 3.6107,-1.3888 1.927,-4.99 1.0938,-6.6562 -0.8332,-1.6667 -5.2746,-0.552 -7.2188,0.2812 -1.9443,0.8332 -2.5036,7.4967 -5.2812,9.7188 -2.7776,2.2219 -4.4236,-2.5108 -3.3125,-5.8438 1.111,-3.333 3.3127,-11.098 5.8125,-13.875 2.4997,-2.7775 12.497,-0.5418 14.719,-1.375 2.222,-0.8333 3.0695,-3.903 3.625,-6.125 0.5554,-2.222 0.2674,-3.3335 -0.8437,-5 -1.111,-1.6665 -3.6112,0.288 -5,0.8438 -1.3887,0.5551 -7.7746,1.0937 -9.7188,1.0937 -1.9443,0 -3.0418,-3.0418 -3.875,-3.875 -0.8333,-0.8332 -3.0522,-1.6668 -4.7187,-2.5 -1.6664,-0.8332 -1.9688,-1.9655 -1.9688,-4.1875 -10e-5,-2.222 1.1253,-2.2015 3.625,-3.3125 2.4997,-1.111 10.834,-1.9515 12.5,-3.0625 1.6664,-1.111 0.264,-6.3995 1.375,-8.3438 1.111,-1.9442 5.8404,-4.9936 8.0625,-9.4374 2.2219,-4.4442 3.0488,-5.8163 4.4375,-8.5938 1.3887,-2.7775 -1.3889,-3.8928 -2.5,-5.2812 -1.1109,-1.3889 -6.0939,-5.2713 -8.5937,-9.4376 -2.4997,-4.1661 0.5421,-6.3927 3.875,-10.281 3.333,-3.8885 -3.6151,-4.993 -7.7813,-4.4375 -4.1663,0.5555 -7.2226,5.8265 -10,6.9375 -2.7776,1.111 -4.1532,0.5415 -6.375,-1.125 -2.222,-1.6665 -7.7744,-3.3265 -9.7187,-4.4375 -1.9441,-1.111 -2.4898,-5.2814 -4.1563,-7.7813 -1.6665,-2.4997 -4.7367,-2.2083 -8.625,-1.375 -3.8886,0.8335 -7.233,-0.011 -10.844,-0.8437 -3.6107,-0.8333 -4.1668,-6.3718 -5,-8.5937 -0.8334,-2.2221 -2.2155,-3.625 -4.4375,-3.625 -2.2219,0 -2.5036,3.0452 -2.7813,4.1562 -0.2779,1.111 -6.0939,3.6285 -8.5937,3.9062 -2.4997,0.278 -2.4933,-4.1878 -4.4375,-6.6874 -1.9442,-2.5 -8.0558,-0.5313 -10,-0.5313 -1.9443,0 -3.8927,-5.5666 -5.2813,-8.3437 -1.3889,-2.7776 -3.8785,-0.2639 -4.1562,1.125 -0.2777,1.3884 -1.9655,1.6665 -4.1875,2.5 -2.2219,0.8331 -3.8821,-0.2919 -4.4375,-1.125 -0.5555,-0.8336 -1.1253,-1.934 -3.625,-1.6563 -2.4998,0.2778 -3.3163,-1.3861 -6.0938,-4.7187 -2.7775,-3.3333 -5.8372,-0.8335 -10.281,0 -4.4439,0.833 0.5658,7.4827 0.8437,8.5937 0.2778,1.111 1.6631,3.0625 -0.2812,3.0625 -1.9442,0 -4.4377,3.0418 -6.9375,3.875 -2.4997,0.8332 -2.7954,1.1247 -3.9063,-1.375 -1.111,-2.4997 -1.9238,-3.0732 -3.3125,-3.9062 -1.3887,-0.8336 -2.8057,-4.7121 -4.75,-6.6563 -1.9443,-1.9442 -5.2538,-2.2187 -8.0312,-2.2187 -2.7776,0 -3.889,-2.7851 -5,-5.5626 -1.111,-2.7772 -5.8335,-6.924 -7.5,-8.3124 -0.6661,-0.5556 -0.74,-2.0111 -0.625,-3.6876 0.1735,-2.5125 0.7921,-5.4793 0.625,-6.3124 -0.2777,-1.3889 -6.1149,-2.7846 -7.7813,-3.0626 -1.66656,-0.2777 -1.94796,-5.2711 -2.78116,-6.9374 -0.8332,-1.6667 -3.6009,-0.5556 -6.6562,0 -3.0552,0.5552 -7.5034,1.9202 -7.7812,3.0312 -0.27771,1.111 -0.55225,1.9688 -2.2188,1.9688 -1.66655,0 -6.4031,1.6495 -8.625,3.5937 -2.222,1.9443 -6.6674,2.2363 -12.5,3.625 -2.5171,0.6 -4.6973,2.2732 -6.4375,4.0937 h -0.0937 c -2.2611,2.3834 -3.6868,5.0911 -4,6.1876 -0.55547,1.9439 -1.9483,2.7812 -5.2812,2.7812 -3.333,0 -1.6913,-1.4103 -4.4688,-6.6875 -2.7775,-5.2772 -11.664,1.4028 -14.719,1.125 -1.5038,-0.1367 -2.5058,-1.5404 -3.5312,-3.4063 -1.0524,-1.9201 -2.1425,-4.3468 -3.6875,-6.3124 -3.0552,-3.8886 -9.9868,-3.625 -16.375,-3.625 -6.3882,0 -11.104,7.2291 -11.938,8.0624 -0.83321,0.8335 -5.8475,1.3716 -8.625,1.0938 -2.7774,-0.2777 -3.0453,-3.042 -4.1562,-6.375 -1.111,-3.333 -3.337,-5.8265 -5.2812,-6.9375 -1.9442,-1.111 -1.941,1.097 -2.2188,-1.125 -0.27777,-2.222 -1.6773,-5.556 -3.3438,-10 -1.6665,-4.4439 2.2328,-4.4237 3.3438,-5.8125 1.111,-1.3887 -0.5695,-8.0522 -1.125,-9.7188 -0.55549,-1.6664 -1.9203,-2.7848 -3.0312,-3.0624 -1.111,-0.2781 -1.4098,-0.8479 -1.6875,-3.625 -0.27777,-2.7776 -2.219,-8.3126 -4.7188,-10.813 -2.4997,-2.4995 0.57302,-4.462 1.4062,-6.4062 0.83326,-1.9442 -0.55576,-3.0456 -2.5,-4.1562 -1.9442,-1.1113 -6.6843,1.1145 -8.9062,0.2812 -2.222,-0.8332 -3.8855,-9.7295 -4.7188,-13.062 -0.83327,-3.333 -4.1773,-3.3366 -5.8438,-2.7813 -1.6665,0.5557 -4.712,1.4063 -6.6562,1.4063 -1.9442,0 -10.007,2.7604 -13.062,3.5937 -3.0552,0.8335 -6.0835,-4.7049 -7.75,-6.0937 -1.6665,-1.3883 -5.0248,-1.4063 -9.4688,-1.4063 -4.444,0 -3.8753,1.1115 -6.375,2.5 -2.4998,1.3888 -4.4308,-0.2779 -6.375,-2.5 -1.9443,-2.2219 -0.007,-3.0624 1.9375,-3.0624 1.9445,0 1.9375,-3.0561 1.9375,-5 10e-6,-1.9446 -0.55604,-3.6116 -5,-5 -4.444,-1.389 -1.663,-2.4898 0.28125,-4.1563 1.94425,-1.6665 0.28125,-5.8166 0.28125,-8.5937 3e-5,-1.8361 -2.9009,-5.8343 -5.4375,-9.3126 -1.2998,-1.7835 -2.5278,-3.4632 -3.1875,-4.5937 -0.16634,-0.2858 -0.1535,-0.5499 -0.0625,-0.8125 0.051,-0.173 0.14151,-0.3335 0.28125,-0.5 3.0422,-3.615 13.143,-3.9639 18.125,-5.625 4.1662,-1.3887 -1.3925,-9.153 -2.7812,-11.375 -1.3888,-2.222 -4.9968,-3.08 -7.2188,-4.4688 -2.222,-1.3885 -2.2398,-3.6112 -3.9062,-5 -1.6665,-1.3885 -3.323,-1.9409 -4.1562,-2.2187 -0.83324,-0.2777 -1.6598,-2.4897 -1.9375,-4.1563 -0.27777,-1.6663 -1.6668,-3.6147 -2.5,-5.2812 -0.83325,-1.6665 -0.83325,-2.205 0,-3.5938 0.83325,-1.3885 0.84375,-2.8022 0.84375,-4.4687 0,-1.6665 -4.7363,-6.3646 -6.125,-8.0313 -1.3887,-1.6663 -8.3163,-10.274 -11.094,-12.219 -2.7775,-1.9442 -5.5628,-1.4027 -8.0625,-1.125 -2.4997,0.2778 -5.2815,4.7085 -7.7812,6.375 -2.4998,1.6665 -2.507,-3.6042 -3.0625,-4.4375 -0.5555,-0.8332 -3.042,-1.6562 -6.375,-1.6562 -3.333,0 -9.1635,-0.2846 -12.219,-0.5626 -0.19095,-0.017 -0.38626,-0.01 -0.5625,0 V 0.1 z"
     style="opacity:0.98999999000000005;fill:#005bbb;fill-opacity:0.98823528999999999;stroke:none"
     inkscape:connector-curvature="0" />
  <path
     id="rect2819"
     d="m 26.552741,395.87975 c -0.186,2.7716 2.5709,3.3461 3.8437,3.2188 1.3889,-0.1389 7.4828,-2.5069 8.5938,-1.8125 1.111,0.6944 2.9375,3.1875 2.9375,3.1875 0,0 2.066,5.2742 2.3437,5.9688 0.278,0.6943 0.6946,2.3646 0,2.7812 -0.6943,0.4166 -1.25,0.55205 -1.25,0.96875 0,0.4166 -0.2882,0.4305 -0.8437,1.125 -0.5555,0.6943 -1.3716,2.2258 0.1563,2.7812 1.5273,0.5555 1.3785,0.9584 1.6562,1.375 0.2778,0.4166 0.5556,0.54505 1.25,0.40625 0.6944,-0.1388 3.1944,-1.1148 2.5,-2.7812 -0.6944,-1.6665 -0.1458,-3.323 0.6875,-2.9062 0.8332,0.4166 3.219,2.4896 4.4687,2.9062 1.25,0.4166 4.4448,-1.226 5,-1.7812 0.5557,-0.5556 1.6703,-5.1599 2.7813,-6.6875 1.111,-1.5277 3.0279,-2.4966 4,-2.2188 0.9721,0.2777 1.6806,1.5209 2.375,1.9375 0.6943,0.4166 1.8022,0.7014 2.2187,0.5625 0.4167,-0.1389 1.2535,0.01 1.5313,0.5625 0.2777,0.5555 0.8302,4.1667 2.2187,5 1.389,0.8332 2.3508,1.4029 2.9063,2.375 0.5555,0.9721 1.1252,2.0764 2.375,1.9375 1.2499,-0.1389 1.8022,0.12835 2.2187,0.40625 0.4167,0.2777 2.5801,2.0868 3.9688,1.5312 0.8576,-0.343 1.4372,-0.5778 1.7812,-0.75 0.2086,-0.2969 0.4131,-0.5189 0.625,-0.625 0.5557,-0.2778 1.4063,-0.5625 1.4063,-0.5625 l 3.3437,1.8125 c 1.8055,0 2.6179,0.132 3.3126,0.6875 0.6942,0.5555 2.7814,1.0936 4.0312,1.0938 1.249899,0 3.895999,0.014 5.562499,1.125 1.6665,1.1109 2.6282,2.2328 2.9063,3.3438 0.2776,1.111 0.6945,2.7569 2.5,2.0625 1.805,-0.6944 4.1842,-3.3368 6.4062,-2.7812 2.222,0.5554 6.5001,1.3996 7.75,3.3438 0.3103,0.4817 0.5939,0.9714 0.8438,1.375 0.7572,1.2217 1.4125,1.927 3.1874,1.4062 l 1.6876,-0.40625 c 0,0 3.601,2.479 6.6562,0.8125 3.0552,-1.6665 3.8926,-0.8403 5.2812,-0.5625 1.3889,0.2777 1.3926,-1.3786 2.7813,-1.6562 1.3888,-0.2783 1.1014,-3.6142 9.1563,-0.28125 8.0543,3.333 6.1147,3.889 7.7812,5 1.6665,1.111 1.3712,1.6702 1.0938,2.7812 -0.2781,1.1108 -0.5588,2.4898 2.2187,4.1562 0.9841,0.5902 2.0921,1.1667 3.125,1.6875 1.8835,0.9482 3.5869,1.7839 4.125,2.5 0.8333,1.111 3.316,6.92 3.5937,8.0312 0.278,1.1108 1.6808,2.802 3.625,1.9688 1.9444,-0.8332 1.9343,-0.84395 4.1563,-0.84375 2.222,-10e-5 8.6113,-2.5003 10,-5 1.3887,-2.4999 2.4828,-5.0036 3.5937,-5.2812 0.8617,-0.2148 1.2204,-0.7501 1.4688,-1.375 0.072,-0.1823 0.1556,-0.3759 0.2188,-0.5625 0.2776,-0.8333 0.8333,-1.9482 2.5,-2.7812 1.6662,-0.8334 5.5522,-2.7742 7.2187,-2.2188 1.6665,0.5555 4.4551,0.27405 5.8437,-0.28125 1.3888,-0.5555 2.2086,-1.1216 3.875,-0.84375 1.6667,0.2778 14.431,0.8472 16.375,1.125 1.9443,0.2778 3.0763,-0.01 4.1876,-0.84375 1.1109,-0.8333 1.9304,-1.6562 3.875,-1.6562 1.9439,0 4.4583,-0.55915 6.125,-0.28125 1.6663,0.2777 2.7637,5e-5 3.875,-0.28125 1.1106,-0.2778 3.3405,-0.5555 5.5624,0 2.2222,0.5555 5.8231,0.0168 6.6563,-1.0938 0.8332,-1.1111 2.2328,-5.8473 3.3437,-6.125 1.111,-0.27789 3.0626,-1.3856 3.0626,-2.2188 0,-0.8332 1.6387,-5.2676 2.75,-6.6562 1.1108,-1.3888 -0.545,-3.0625 0.8437,-3.0625 1.3887,0 2.7813,-0.84375 2.7813,-0.84375 h 0.5624 c 0.1888,0.2517 0.454,0.4757 0.75,0.5625 0.356,0.102 0.7587,0.0228 1.0626,-0.28125 0.5552,-0.5556 3.4411,-2.8992 4.9687,-2.3438 1.5276,0.5555 3.3439,1.663 4.5937,0.96875 1.25,-0.6945 2.0799,-1.2571 2.2188,-1.8125 0.056,-0.2279 0.1753,-0.51005 0.3438,-0.78125 0.2418,-0.3906 0.5786,-0.71405 0.9062,-0.46875 0.5555,0.4167 1.132,1.1144 1.6875,0.28125 l 1.25,-1.6875 c 0,0 3.8613,-9.1387 5.25,-7.75 1.3888,1.3887 3.6113,4.7186 5,4.7188 1.3888,-1e-4 2.8021,-2.2364 1.9687,-3.625 -0.4443,-0.74077 -1.5097,-2.0171 -2,-3.0625 H 26.556441 z m 291.219999,0 c 1.25,0.52517 2.5205,0.97735 3.4063,1.125 1.5021,0.2504 3.234,-0.38584 3.5625,-1.125 h -6.9688 z m 13.688,0 c 1.576,0.78818 5.6522,1.3514 7.9687,0 h -7.9687 z m 47.094,0 c 0.42635,0.62526 0.66075,1.3571 0.8125,1.8125 0.2778,0.8332 1.6672,5.1354 6.25,5.9688 4.5828,0.8332 7.5139,0.7155 7.375,2.9375 -0.08,1.2889 -0.66555,3.1542 -0.90625,4.5625 -0.1758,1.0177 -0.18135,1.7639 0.34375,1.9375 1.2499,0.4166 2.9168,-0.25375 3.75,-1.7812 0.8332,-1.5278 2.3611,-0.57975 2.5,0.53125 0.1389,1.111 0.4309,5.8504 3.625,3.9062 3.1941,-1.9443 6.0938,-4.7324 7.3438,-3.3438 1.2499,1.3887 2.9232,4.4618 0.5625,6.4062 -2.3609,1.9441 -4.8749,4.3055 -2.375,5 2.4997,0.6943 2.7779,-0.8336 3.75,-2.5 0.972,-1.6666 3.191,-2.0833 3.4688,0 0.2778,2.0831 0.1528,2.0627 -0.125,4.5625 0,0 5.6802,9.8969 4.0312,0 -0.2779,-1.6666 4.7295,-4.986 8.0625,-3.875 2.6108,0.4113 8.1625,0.28071 11.25,1.8125 0.2372,0.1075 0.4825,0.21315 0.6875,0.34375 0.6672,0.4252 1.1666,0.98965 1.375,1.7188 0.6639,2.3217 2.901,9.215 5.9062,13.906 0.76,1.188 1.5916,2.2324 2.4375,3.0312 0.3674,0.3468 0.71415,0.59995 1.0938,0.84375 0.4089,0.2627 0.8298,0.5034 1.25,0.625 0.0441,0.013 0.11155,-0.011 0.15625,0 0.048,0.012 0.077,0.0525 0.125,0.0625 0.1842,0.038 0.3794,0.0857 0.5625,0.0937 0.4195,0.018 0.8245,-0.064 1.25,-0.21875 6.1105,-2.2218 9.4515,-6.1072 10.562,-2.2188 1.111,3.8886 3.3405,7.2256 5.5625,7.7812 2.222,0.5554 -5.5658,6.0905 -3.3438,8.3125 2.222,2.2219 4.4548,3.91 3.3438,6.6875 -1.111,2.7774 -2.7954,3.8788 -3.9062,6.6562 -1.1111,2.7774 -0.54525,7.7851 -1.6562,10.562 -1.111,2.7775 -2.7672,2.7538 -1.6562,5.5312 1.1111,2.7774 2.1982,3.9134 5.5312,4.4688 3.333,0.5555 6.6772,6.0905 8.3438,8.3125 1.6665,2.2219 5e-5,6.1148 2.7812,7.7812 2.7775,1.6664 6.1006,0.57285 6.6562,-1.0938 0.5554,-1.6665 3.3334,-2.7845 5,-0.5625 1.6664,2.2219 3.8955,7.2015 0.5625,8.3125 -3.333,1.1111 -2.2118,3.3405 -1.6562,5.5625 0.5555,2.2219 2.208,3.3508 -1.125,3.9062 -3.333,0.5554 -4.4478,1.646 -2.7812,3.3125 1.6665,1.6664 2.778,4.4478 5,2.7812 2.2219,-1.6666 3.3438,-0.01 3.3438,1.6562 0,1.6664 -1.1078,5.014 -2.2188,6.125 -1.1111,1.1109 -3.3331,3.889 0,5 3.3329,1.1109 5.5522,0.56635 7.2188,3.3438 1.6665,2.7772 3.3162,1.1148 6.0938,2.7812 2.7774,1.6665 2.7781,2.2085 5,3.875 2.222,1.6664 2.7709,-0.5415 4.4375,1.125 1.6664,1.6665 3.9165,2.2155 2.25,4.4375 -1.6666,2.2219 -3.3611,7.1984 -2.25,10.531 1.1108,3.3329 1.6736,5.5662 0.5625,8.3438 -1.111,2.7774 -3.3228,7.7952 -1.6562,8.9062 1.6665,1.111 2.7888,6.653 8.3438,8.875 5.5548,2.2219 4.437,3.3195 -0.5625,3.875 -4.9994,0.5554 -8.3335,0.55925 -10,2.7812 -1.6665,2.2219 -6.125,0.56575 -6.125,-1.6562 0,-2.22195 1.6698,-8.3368 -2.2188,-7.7812 -3.8885,0.5555 -7.2118,-2.2182 -6.6562,2.7812 0.5555,4.9994 -1.6602,6.6595 -4.4375,4.4375 -2.7775,-2.2219 -7.2188,-3.875 -7.2188,-3.875 0,0 2.222,-5 0,-5 -2.2219,0 -5.5625,-5e-5 -5.5625,2.2188 0,2.2219 -1.6702,4.979 -2.7812,3.3125 -1.111,-1.6666 -1.6602,-3.3055 -4.4375,-2.75 -2.7775,0.5554 -2.7882,1.0905 -3.3438,3.3125 -0.5555,2.2219 -2.771,3.8992 -4.4375,3.3438 -1.6665,-0.5555 0.01,-3.8788 0.5625,-6.6562 0.5555,-2.7775 1.1142,-10.573 -2.2188,-8.9062 -3.333,1.6666 -3.917,3.3336 -7.25,5 -3.333,1.6666 -12.198,1.6638 -10.531,7.2188 1.6665,5.5549 1.6492,8.896 1.0938,10.562 -0.5555,1.6665 -0.5416,2.778 1.125,5 1.6665,2.2219 5.5345,5.5524 3.3125,7.2188 -2.2219,1.6665 -5,5.0108 -5,8.3438 0,3.3329 1.1212,6.646 -1.6562,8.3125 -2.7774,1.6665 -11.108,3.3405 -12.219,5.5625 -1.111,2.2219 1.1039,9.4585 -0.5625,11.125 -1.6666,1.6664 -4.4208,2.768 -10.531,6.6562 -6.1104,3.8886 -9.4478,5.5631 -7.7812,10.562 1.6665,4.9993 0.53125,5.5561 0.53125,10 0,1.43 -0.14335,2.5964 -0.46875,3.4688 -0.6879,1.8422 -2.0852,2.4401 -3.9688,2.0625 -1.3887,-0.2778 -5.2573,-1.9236 -8.9375,-2.0625 -3.6802,-0.1389 -7.1634,1.2298 -7.7188,7.0625 v 0.5625 c 2.2219,0.6943 3.5971,1.389 3.875,2.5 0.2777,1.1109 0.14265,6.5211 2.7812,9.4375 2.6386,2.9163 7.2364,4.8856 9.875,5.7188 2.6386,0.8333 3.7363,1.3751 5.125,2.625 1.3887,1.2499 3.8992,1.375 4.5938,1.375 0.6943,0 2.0938,0.1667 3.3438,1 1.2499,0.8333 3.455,1.6666 4.8438,1.25 1.3887,-0.4167 3.1946,-0.71875 3.75,-0.71875 0.5554,-10e-5 2.3784,-0.8195 1.4062,-1.375 -0.9721,-0.5556 -4.3331,-2.7742 -2.25,-3.4688 2.0831,-0.6944 2.5104,-1.1216 2.0938,-2.0938 -0.4166,-0.9722 -0.8401,-3.0588 0.6875,-2.7812 1.5275,0.2779 2.0833,0.71185 2.5,1.4062 0.4166,0.6943 1.2744,1.2328 1.9688,1.0938 0.6944,-0.1388 1.3784,0.42715 1.6562,0.84375 0.2777,0.4166 3.4792,3.1803 4.3125,1.375 0.8333,-1.8054 1.7919,-5.2814 3.875,-6.5312 2.0832,-1.25 2.7779,-1.243 3.75,-1.9375 0.9721,-0.6944 2.3751,-1.3854 3.625,-0.96875 1.2499,0.4165 1.3613,0.4166 2.75,0 1.3887,-0.4167 3.6356,-2.3543 4.4688,-3.1875 0.8333,-0.8333 1.5314,-1.1074 2.7812,-0.96875 1.2499,0.1389 2.764,0.2708 3.875,-0.5625 1.1111,-0.8333 1.9306,-0.7012 2.625,-0.5625 0.6944,0.1389 2.6564,0.5763 3.9062,0.4375 1.2499,-0.1389 2.2188,-0.4235 3.4688,0.6875 1.2499,1.1111 1.5142,1.1008 3.875,1.6562 2.3608,0.5555 6.2744,2.2328 6.9688,3.3438 0.6944,1.1111 4.1598,4.8615 4.4375,7.5 0.2778,2.6386 0.4168,4.4514 1.25,5.5625 0.8333,1.111 2.3438,2.625 2.3438,2.625 l -0.125,0.125 0.28125,-0.125 0.6875,-0.0625 0.21875,-0.28125 v -0.78125 l -0.4375,-0.875 -0.0312,-0.71875 0.28125,-0.53125 1.1875,-3.9062 1.0938,-2.3438 0.0937,-0.5 -0.0937,-0.34375 c 0,0 -0.30395,-0.64965 -0.46875,-0.96875 -0.052,-0.1062 -0.0625,-0.21875 -0.0625,-0.21875 l 0.34375,-1.5312 -0.5,-1.6562 -0.125,-2.6562 -0.4375,-0.46875 -0.8125,-0.625 v -0.28125 l 1.0312,0.40625 h 0.40625 l 0.21875,-0.1875 0.125,-0.4375 0.0937,-3.5312 -0.15625,-0.34375 -0.6875,-0.6875 -0.28125,-0.96875 -0.625,-0.28125 -0.40625,0.46875 -0.5625,2.5625 -0.34375,0.625 -0.15625,-0.34375 -0.0625,-1.5312 -0.28125,-0.625 -0.28125,-0.125 -0.6875,0.28125 -0.46875,0.90625 -0.21875,0.28125 h -0.28125 l -0.21875,-0.625 0.0937,-1.25 -0.15625,-0.71875 -0.125,-0.25 -0.4375,-0.0937 -0.34375,0.15625 -0.40625,0.46875 -0.28125,0.78125 -0.21875,2.4375 -0.34375,0.0625 -0.75,-0.625 -0.96875,-1.75 -1.125,-1.5312 V 691.128 l 0.21875,-0.28125 0.625,-0.1875 0.46875,-0.4375 1.125,-2.2812 0.5,-0.46875 h 0.34375 l 0.8125,-0.5625 0.34375,-0.5625 0.28125,-0.84375 0.0937,-0.125 -0.4375,-0.0625 -0.5625,-0.34375 -1.25,-0.0937 -1.25,-0.28125 -1.3125,-0.625 -0.34375,-0.53125 0.0625,-1.1875 0.84375,-4.7812 -0.125,-1.9688 -0.5,-3.1875 0.0625,-1.6562 0.28125,-0.78125 0.40625,-0.53125 0.84375,-0.5625 0.90625,-0.34375 0.5,-0.4375 v -0.40625 l -0.21875,-0.21875 -0.78125,-0.625 -0.1875,-0.53125 -0.0625,-1.1875 0.625,-1.875 0.6875,-1.25 0.90625,-0.96875 0.125,-0.5 -1.1875,-2.3438 -0.0625,-0.78125 0.15625,-0.40625 0.25,-0.15625 0.28125,0.0937 0.4375,0.46875 0.34375,0.96875 0.28125,0.21875 1.5938,0.0625 0.1875,0.28125 0.28125,1.375 0.71875,0.71875 -0.0937,0.75 -0.8125,1.0312 -0.15625,0.84375 -0.34375,1.125 -0.125,0.8125 0.53125,0.84375 0.28125,0.625 -0.125,0.84375 -0.5,1.0312 v 0.75 l 0.34375,0.5625 1.5312,1.25 0.96875,1.3125 1.0625,2.0312 0.125,1.0938 -0.40625,1.625 0.125,0.75 h 0.28125 l 0.21875,-0.28125 0.28125,-0.75 0.28125,-0.15625 1.7812,-0.5625 0.5625,-0.34375 0.15625,-0.40625 -0.0937,-1.125 0.15625,-0.25 0.34375,-0.15625 0.90625,0.5625 0.40625,0.0625 0.28125,-0.0625 0.5625,-0.34375 0.6875,-0.6875 1.75,-0.90625 0.46875,-0.4375 0.15625,-0.40625 -0.28125,-0.5625 -0.5625,-0.34375 -1.3125,-0.125 -0.625,-0.28125 -1.75,-2.375 -0.28125,-0.625 v -0.75 l 0.21875,-0.84375 0.40625,-0.5625 1.9688,-0.625 1.4375,-0.6875 1.25,0.0625 0.34375,-0.125 0.6875,-1.125 0.375,-0.125 0.34375,0.125 0.1875,0.21875 -0.0625,0.84375 0.15625,0.34375 1.375,0.90625 0.34375,0.53125 0.28125,1.0625 0.40625,0.125 0.15625,-0.34375 -0.15625,-1.0938 0.0937,-0.84375 -1.1875,-3 0.125,-2.1562 0.625,-1.7812 0.15625,-0.21875 0.34375,-0.0625 0.1875,0.6875 -0.34375,2 0.0937,0.375 0.53125,0.34375 0.5,1.25 h 0.125 l 1.25,-2.7188 0.0937,-0.5 -0.5625,-0.8125 -0.0625,-0.6875 0.25,-1.6875 0.4375,-0.53125 0.5625,-0.28125 h 0.40625 l 2.7188,0.75 0.6875,0.6875 1.0938,2.0938 0.78125,0.96875 h 0.34375 l 0.28125,-1.3125 0.125,-0.28125 0.28125,-0.21875 1.0312,0.84375 0.28125,-0.0625 0.21875,-0.34375 V 657.253 l 0.34375,-0.625 0.0625,-0.34375 -0.625,-1.5938 1.0625,-1.8125 0.28125,-2.1562 0.34375,-0.625 0.34375,0.0625 0.5625,0.78125 0.53125,1.1875 -0.125,0.8125 -0.5625,0.84375 v 0.34375 l 0.625,0.6875 0.34375,0.96875 -0.40625,2.0312 h 0.0625 l 1.8125,-1.25 3.9688,-3.1875 1.4375,-0.84375 0.78125,-0.5625 1.0938,-1.8125 1.25,-1.5312 2.0312,-3.875 1.9375,-2.7812 1.0938,-1.1875 2.1562,-2 1.125,-1.25 1.3125,-0.90625 2.5,-2.625 2.9062,-2.5938 0.71875,-1.3125 0.6875,-2.7188 0.28125,-0.6875 0.46875,-0.46875 0.90625,-0.4375 0.40625,-0.46875 1,-1.8125 0.875,-2.0938 0.5625,-0.875 0.90625,-1 1.5312,-2.2812 2.2812,-2.3438 0.34375,-0.5625 1.625,-3.4062 c 0,-1e-4 0.0421,-0.5348 0.1875,-1.125 0.19311,-0.7726 0.4375,-1.6562 0.4375,-1.6562 V 607.753 l -0.28125,-0.5625 -1.4062,-0.625 -0.6875,-0.6875 -0.125,-0.625 0.125,-0.4375 0.21875,-0.125 0.8125,0.0625 2.4375,1.4062 0.5,0.0625 0.40625,-1.4688 0.625,-0.625 2.5625,-1.8125 0.28125,-0.75 0.96875,-4.0938 0.84375,-1.5938 v -0.84375 l -0.78125,-1.0312 -0.125,-2.3125 -0.40625,-0.46875 -1.0625,-0.5 -0.40625,-0.46875 -0.34375,-0.96875 0.46875,-0.90625 0.90625,-0.90625 1.4688,-2.4375 0.46875,-0.40625 0.71875,-0.21875 0.40625,0.0625 0.96875,0.5 0.40625,0.0625 h 0.5 l 1.25,-0.34375 2.9062,-1.4688 1.5312,-1.1562 0.625,-0.375 0.6875,-0.0625 0.78125,0.21875 h 0.40625 l 1.8125,-1.4062 2.0938,-0.96875 2.625,-0.8125 1.4062,-0.21875 2.75,0.0625 1.6875,-0.46875 1.25,-0.5625 1.375,-0.15625 h 0.90625 l 0.84375,0.21875 2.7812,1.125 1.7188,0.40625 1.6562,0.0625 3,0.5625 0.6875,-0.0625 1.4688,-0.78125 1.0938,-0.6875 1.625,-0.46875 0.96875,-0.4375 0.40625,-0.46875 0.40625,-1.6875 0.4375,-0.46875 1.0938,-0.6875 1.125,-1.1875 1.25,-2.7812 0.75,-1.125 0.4375,-1.1562 -0.28125,-0.625 -0.21875,-0.21875 -1.125,-0.40625 -1.5,-0.90625 -0.4375,-0.5 -0.28125,-0.96875 -0.1875,-2.625 -0.5625,-1.1875 0.21875,-0.28125 0.40625,0.0625 0.6875,0.6875 0.28125,0.625 0.40625,2.0938 0.28125,0.5625 1.3125,0.625 1.1875,1.0938 0.4375,0.0937 0.34375,-0.0937 0.40625,-0.46875 0.21875,-0.78125 v -0.8125 l -0.15625,-0.625 0.0625,-0.4375 1.3438,-0.40625 0.8125,-0.5 1.3438,-0.96875 0.34375,-0.53125 0.46875,-0.96875 0.5625,-2.0312 0.34375,0.15625 0.40625,0.46875 0.15625,0.28125 v 0.84375 l -1.125,1.875 -2.3438,2.6875 -0.5,1.5312 -0.0625,2.0312 -0.28125,0.75 -0.5625,0.90625 -1.1562,1.0312 -0.4375,0.625 -0.0625,1.6875 -0.5625,0.96875 -0.40625,0.53125 -1.1875,0.5625 -0.46875,0.5 -0.375,1.0312 0.0937,0.78125 0.125,0.25 0.6875,0.28125 1.5938,0.0937 1.625,0.40625 0.96875,0.5625 0.6875,0.6875 0.6875,0.28125 h 0.78125 l 0.25,-0.21875 0.28125,-0.6875 0.28125,-1.3125 0.28125,-0.78125 0.40625,-0.5625 0.78125,-0.53125 1.9375,-0.5625 h 0.84375 l 2.6875,0.90625 1.4062,0.5625 1.875,1.0938 0.8125,0.15625 1.5312,-0.0937 1.6875,0.84375 0.75,0.21875 h 0.40625 l 3.0625,-1.3438 2.3125,-1.25 0.96875,-0.8125 0.34375,-1.125 -0.84375,-1.8125 -0.21875,-1.7812 0.0937,-0.84375 0.625,-2.4375 -0.28125,-1.0312 -0.34375,-0.90625 -0.625,-0.75 -0.9685,-0.84375 -0.71875,-1.125 -0.28125,-1.0312 v -1.0938 l 0.4375,-1.6875 0.28125,-0.6875 0.53125,-0.90625 0.78125,-0.625 2.625,-1.25 0.5,-0.40625 0.21875,-0.28125 1.4375,-3.5312 0.5,-2.0312 0.1875,-1.3125 -0.125,-0.34375 -0.625,-0.34375 -0.90625,0.34375 -0.5625,0.34375 -0.90625,0.40625 h -0.75 l -0.6875,-0.28125 -0.4375,-0.46875 -0.25,-0.625 0.125,-1.6875 0.28125,-0.6875 2,-2.7812 0.5625,-0.90625 0.0625,-0.40625 -0.0625,-0.34375 -0.21875,-0.21875 -0.34375,-0.125 -0.6875,0.125 -1.875,1.3438 -0.5625,0.25 -1.7188,-0.1875 -0.625,-0.34375 -0.6875,-0.71875 -0.5625,-1.5938 0.0625,-1.5938 0.5625,-1.4375 1.4375,-2.3125 0.21875,-0.6875 -0.0625,-1.125 -0.40625,-0.96875 -1.125,-1.0938 -1.6562,-0.4375 -0.34375,-0.125 -0.375,-0.5625 -0.125,-0.6875 0.5625,-2.2812 0.125,-1.6875 -0.1875,-0.6875 -0.84375,-1.375 -1.1875,-0.6875 -2.0938,-0.5 -1.5,-0.96875 -0.84375,-0.96875 -0.21875,-0.96875 0.15625,-0.90625 0.34375,-0.6875 0.40625,-0.5 0.90625,-0.34375 0.28125,0.21875 -0.34375,2.4062 0.28125,0.96875 0.46875,0.5 0.625,0.28125 3.125,1.0312 1.25,0.625 0.34375,0.5625 0.21875,0.6875 -0.34375,3.3438 0.0625,0.75 0.34375,0.625 0.0625,0.28125 0.78125,0.625 1.8125,0.78125 0.6875,0.6875 0.28125,0.5625 0.34375,1.7188 -0.15625,1.75 -0.6875,1.9375 -0.96875,1.9375 -0.125,0.84375 0.0625,0.28125 0.46875,0.46875 0.78125,0.28125 0.6875,0.0625 1.5312,-0.6875 1.4688,-0.21875 0.75,0.0937 1.25,0.34375 0.6875,0.625 0.0937,0.75 -0.375,0.6875 -2.625,2.9375 -0.34375,1.1875 0.125,0.6875 0.28125,0.5625 0.78125,0.1875 1.1562,-0.0625 1,-0.34375 1.1562,0.21875 0.78125,0.6875 0.1875,0.96875 -0.1875,1.8125 -0.96875,3.5938 -0.71875,1.875 -0.46875,0.96875 -1.6562,1.5938 -0.78125,1.125 -0.34375,1.6562 0.0625,3.125 0.4375,0.90625 0.40625,1.3125 0.34375,0.5625 1.125,1.1875 0.125,0.28125 0.0625,2.7812 1.4062,3.6562 1.875,2.6562 1.375,1.0312 0.6875,0.28125 0.84375,0.15625 1.5312,-0.15625 0.46875,0.0625 0.71875,0.28125 0.90625,0.5625 0.46875,0.5 0.5,0.8125 0.53125,3.125 0.5,0.5 h 0.40625 l 0.21875,-0.21875 1.0938,-1.25 0.5625,-0.40625 0.84375,-0.34375 1.375,-0.21875 0.625,-0.28125 0.90625,-1.4688 0.28125,-0.1875 0.34375,-0.15625 0.78125,0.15625 0.53125,0.40625 2.25,2.4375 1.1562,1.0938 0.625,0.375 1.25,0.1875 3,-0.1875 1.7188,-0.4375 1.4062,-0.75 2.3438,-1.6875 2.6562,-1.4375 0.5625,-0.21875 1.0938,-0.75 1.1875,-0.5625 0.6875,-0.15625 0.84375,0.0937 0.90625,-0.4375 3.9375,-2.7812 0.28125,-0.125 h 0.4375 l 0.46875,0.5 -1.8125,2.3438 -1.1562,1.1875 -0.90625,0.46875 -1.75,0.375 -0.90625,0.40625 -1.3125,0.90625 -2.7812,1.0938 -0.75,0.5625 -1.4688,1.8125 -0.90625,0.40625 -1.5312,1.125 -0.75,1.1875 -0.28125,1.7188 0.28125,0.5625 0.90625,0.5625 0.125,0.28125 -0.125,0.40625 -0.5,0.40625 -2.2812,1.25 -1.75,1.5312 -1.1562,-0.0625 -1.3438,-0.21875 -0.75,-0.28125 -2.6562,-0.46875 -0.96875,-0.5 -1.3125,-1.375 -1.0312,-0.5 -1.25,-0.125 -1.0625,0.1875 -0.625,0.28125 -0.75,0.0937 -0.75,-0.21875 -3.4062,-1.5312 -0.4375,-0.125 -0.75,0.0625 -0.90625,0.40625 -1.3125,0.34375 -1.8125,0.21875 -1.7188,-0.28125 -2.25,-0.75 -0.875,-0.15625 -2.5,-0.125 -2.1562,-0.34375 -1.4062,0.25 -0.8125,-0.0625 -0.5625,-0.28125 -0.625,-0.8125 -2.2188,-0.5 -0.96875,-0.46875 -1.4062,-1 -1.375,-0.625 -0.78125,-0.0625 -1.4375,0.28125 -1.875,0.0625 -0.71875,0.21875 -1.875,0.6875 -1.9375,0.0625 -1.0312,0.21875 h -1.5938 l -1.25,-0.28125 -1.125,-0.34375 -0.8125,-0.625 -1.875,-2.2188 -0.90625,-0.5625 -0.21875,0.15625 1.75,2.7812 0.6875,0.625 2.1562,1.3125 2,2.8438 0.84375,0.96875 1.0938,0.84375 1.5312,0.875 0.4375,0.5 0.34375,0.5 0.40625,0.875 0.625,2.375 0.34375,0.5625 0.28125,-0.15625 0.125,-0.40625 0.0937,-4.0312 0.1875,-0.8125 0.625,-0.78125 0.5,-0.28125 h 0.40625 l 2.0938,0.15625 0.625,-0.28125 h 1.5938 l 1.6562,0.75 1.5312,0.5 3.125,1.375 1.8125,0.625 2.625,1.4062 0.4375,0.0625 0.6875,-0.15625 1.0938,-0.6875 h 0.4375 l 0.28125,0.21875 1.5312,-0.15625 0.34375,0.0937 0.8125,0.96875 0.4375,0.90625 0.53125,0.75 1.3438,1.4688 0.75,1.375 0.21875,0.6875 -0.21875,0.34375 -0.21875,0.28125 -1.6562,-0.125 -0.6875,0.21875 -0.5625,0.25 -0.125,0.375 -0.15625,0.8125 -0.34375,0.6875 -1.375,0.84375 -1.4688,0.6875 -3.125,0.625 h -2.4375 l -2.1562,-0.28125 -1.5312,0.0937 -0.625,0.1875 -1.375,0.90625 -1.8125,0.84375 -0.75,0.625 -0.21875,0.6875 0.625,0.78125 c 0,0 0.3972,0.34255 0.625,0.53125 0.0933,0.0779 0.15625,0.15625 0.15625,0.15625 l 0.625,1.0938 0.25,0.21875 1.125,0.40625 1.5938,0.21875 2.1562,-0.34375 1.3125,0.125 0.6875,-0.125 0.21875,-0.6875 -0.28125,-0.5625 c 0,0 -0.14835,-0.2504 -0.34375,-0.5 h 3.4062 c 0.3016,0.191 0.5625,0.34375 0.5625,0.34375 l 0.40625,0.5 0.6875,1.4688 0.625,0.34375 1.6875,0.34375 0.96875,0.46875 1.5312,0.5 0.6875,-0.0625 0.96875,-0.21875 0.5,0.0625 0.53125,0.21875 0.90625,0.90625 0.78125,0.96875 0.75,1.0312 0.625,1.1875 0.40625,0.40625 1.6875,0.84375 1.25,0.28125 2.0625,0.90625 0.90625,0.125 0.96875,-0.28125 1.1875,0.375 0.625,-0.21875 1.4062,-0.84375 h 0.34375 l 0.125,0.28125 -0.0625,0.40625 -1.4688,1.3438 -0.125,0.40625 0.90625,1.75 0.125,1.5 0.28125,0.96875 0.40625,0.5 1.6875,0.34375 3.25,1.25 5.0625,1.5938 6.9688,1.5312 1.25,0.0625 0.875,-0.34375 1.0625,-1.375 1.1875,-0.4375 0.8125,-0.125 1.1875,-0.625 0.6875,-0.0625 1.5312,-0.6875 0.6875,-0.15625 h 0.34375 l 2.0938,0.34375 0.90625,-0.46875 1.0312,-0.0937 0.96875,-0.40625 1.5312,-1.0938 2.0938,-0.4375 2.8438,0.0625 2.1562,0.84375 h 0.40625 l 0.96875,-0.21875 0.5,0.0937 0.90625,0.46875 0.1875,0.28125 0.78125,0.21875 0.75,-0.0625 1.3438,-0.84375 0.6875,-0.21875 0.75,-0.0625 2.375,0.125 1.8125,-0.1875 0.875,-0.5 0.4375,-0.5625 0.1875,-0.6875 -0.125,-1.0938 -0.6875,-1.0625 0.125,-0.25 0.21875,-0.15625 2.7188,0.84375 2.4062,2.2188 0.84375,0.1875 0.6875,-0.125 1.3125,-0.84375 2.3125,-1.7188 1.0938,-0.6875 0.15625,-0.28125 -0.0937,-1.5312 0.21875,-0.78125 0.84375,-0.53125 0.46875,-0.90625 0.34375,-1.1875 0.4375,-0.5 0.28125,0.0937 v 0.75 l -0.34375,0.625 -0.21875,1.75 0.5625,2.6875 0.0625,0.78125 -0.28125,0.75 -0.75,1.0312 -0.0937,0.28125 0.0937,0.34375 0.1875,0.28125 0.34375,-0.125 1.8125,-1.3125 0.5625,-0.28125 0.40625,-0.0625 h 0.34375 l 0.90625,0.625 2.4375,1.0312 0.40625,0.40625 0.0937,0.34375 -0.15625,0.84375 -0.46875,0.5625 -1.0625,0.6875 -0.34375,0.5625 0.28125,0.125 0.75,0.21875 0.375,-0.15625 0.875,-1.5 0.5625,-0.28125 3.0625,0.90625 0.625,0.8125 0.21875,1.4062 1.3125,1.0312 0.90625,1.3125 0.625,0.34375 h 0.8125 l 1.3438,-0.90625 0.75,-0.0625 2.0938,1.1875 0.34375,0.125 0.34375,-0.0625 0.21885,-0.34345 -0.15625,-0.28125 -1.1875,-1.875 v -0.40625 l 0.375,-0.6875 0.40625,-0.5 0.5625,-0.34375 2.5,0.21875 0.25,-0.15625 0.0937,-0.34375 -0.625,-0.6875 -1.125,-0.40625 -0.5625,-0.4375 -0.125,-0.625 0.28125,-0.75 0.6875,-0.6875 0.90625,-0.375 0.21875,-0.25 0.40625,-1.0625 0.84375,-0.46875 0.25,-0.21875 0.4375,-1.0938 0.28125,-0.15625 0.40625,0.0625 0.90625,0.5 0.40625,0.5625 0.96875,2.4062 1.125,1.5938 0.6875,1.4688 v 0.78125 l -0.0625,0.40625 -0.78125,0.5625 -0.40625,0.53125 -0.0625,0.4375 0.0625,2.3438 0.5625,1.1875 0.75,0.5625 0.21875,0.28125 v 0.40625 l -0.21875,0.28125 -1.0312,0.75 -0.34375,0.625 1.3125,1.8125 0.28125,1.0625 -0.125,0.40625 -1.25,1.5938 -0.28125,0.75 0.0625,0.28125 0.21875,0.28125 0.75,-0.0625 1.1875,-1.6562 0.5625,-0.28125 h 0.8125 l 1.9375,0.5625 3.0625,0.40625 0.96875,0.5625 0.71875,0.625 0.34375,0.53125 0.0625,0.375 -0.15625,0.34375 -0.25,0.1875 -2.3125,0.15625 -1.3125,0.90625 -0.28125,0.125 -0.84375,-0.0625 -0.6875,0.21875 -0.125,0.25 -0.0625,0.84375 0.40625,1.25 0.21875,1.4688 -0.0937,0.8125 -0.46875,0.5 -0.96875,0.21875 -0.71875,-0.21875 -0.53125,-0.34375 -1.125,-1.25 -0.625,-0.34375 -0.40625,-0.0625 -0.96875,0.25 -2.7188,1.25 -0.5,0.5625 -0.25,1.25 -0.4375,0.5625 -0.625,0.21875 -0.625,0.1875 -1.5938,0.0937 -0.28125,-0.15625 -1.0938,-0.75 -0.78125,-0.15625 -0.46875,0.34375 -0.34375,0.71875 -0.28125,0.1875 h -1.5312 l -1.8125,0.78125 -1.875,2.4062 -0.96875,1.0625 -0.96875,0.75 -3.1875,2.2188 -4.3125,2.2188 -0.96875,0.34375 h -0.4375 l -0.6875,-0.34375 -0.5625,-0.75 -0.53125,-0.34375 -1.125,-0.5 -0.5625,-0.34375 -0.1875,-0.625 -0.15625,-0.75 -0.46875,-0.4375 -0.4375,0.5 -0.28125,0.84375 0.0937,0.34375 0.40625,0.90625 1.0312,0.75 0.4375,0.5625 v 0.34375 l -0.15625,0.34375 -2.5625,0.84375 -3.8125,2.3438 -4.7812,2.2188 -4.9375,2.5938 -0.96875,0.34375 -2.6562,1.7812 -2.0625,2.0312 -2.3125,1.875 -1.0312,1.25 v 0.6875 l 0.84375,0.96875 0.125,0.34375 0.0625,0.34375 -0.5625,1 -0.53125,0.34375 h -0.34375 l -1.8125,-0.34375 -1.0625,-0.4375 -1.25,-0.0625 -0.53125,0.40625 -1.3438,2.4375 -1.0312,0.90625 -1.7188,0.75 -2.7812,0.5 -0.90625,0.5 -1.4062,1.3125 -3.25,2.0625 -1.5938,1.125 -0.90625,0.90625 -2.625,4.0938 -0.71875,2.2812 0.21875,0.625 0.96875,1.3125 0.28125,0.625 -0.0625,1.625 0.125,0.6875 0.34375,0.5625 0.21875,0.1875 1.8125,0.34375 c 0,0 0.16795,0.072 0.34375,0.15625 0.2777,0.1368 0.625,0.28125 0.625,0.28125 l 1.3125,1.0938 0.78125,0.15625 2.625,-0.15625 0.40625,0.0625 1.25,0.625 0.4375,0.15625 0.75,-0.0625 0.5625,-0.28125 0.90625,-1.5312 0.40625,-0.5 0.75,-0.625 0.84375,-0.46875 0.6875,-0.6875 0.84375,-0.5 1.125,-0.125 2.9688,0.25 2.2812,-0.625 2.0312,-0.0625 1.6562,0.21875 4.375,1.1875 1.9375,1.3125 0.28125,0.28125 c 0.2951,0.2495 0.71875,0.5625 0.71875,0.5625 l 2.75,1.5938 3.9688,3.1875 3.5312,3.75 0.5625,0.40625 1.6562,1.9375 1.9688,1.75 0.75,0.28125 2.0312,0.125 0.6875,0.28125 1.0938,0.84375 0.96875,1.25 0.5625,0.40625 1.25,0.28125 0.6875,-0.125 0.78125,-0.5625 1.0312,-1.4062 0.6875,-0.125 1.1875,0.125 0.625,-0.28125 1.3125,-0.96875 1.125,-0.125 0.75,0.0625 0.84375,0.21875 1.5312,0.96875 3.625,2.9688 1.4375,0.5625 1.25,0.625 2.0938,1.75 0.34375,0.46875 0.6875,0.625 0.78125,1.0625 0.40625,0.90625 0.75,3.375 0.0937,2.375 0.125,1.0312 0.125,0.28125 0.375,0.4375 0.6875,1.0312 0.96875,2.4375 0.96875,4.8438 v 1.1875 l -0.75,2.7812 v 1.1875 l -0.375,1.25 -0.1875,0.34375 -0.5625,0.28125 -1.8125,0.25 -0.5625,0.28125 -0.40625,0.5 -0.84375,1.5938 -0.34375,1.75 -0.96875,2.5625 v 0.40625 l 0.5625,1.5312 c 0,0 0.0275,0.13935 0.0625,0.40625 0.0955,0.729 0.28125,2.0938 0.28125,2.0938 l 0.96875,2.1562 0.4375,1.5938 v 0.84375 l -0.625,2 -1.3438,2.0312 -0.28125,1.1562 0.21875,0.625 0.40625,0.5 0.28125,0.21875 1.5938,0.125 0.4375,0.125 0.90625,0.5625 0.125,0.34375 -0.46875,0.4375 -1.125,0.28125 -1.875,0.0625 -1.375,0.28125 -0.84375,-0.15625 -2,0.5625 -1.625,-0.0625 -0.46875,0.90625 -1.125,0.125 -0.6875,1.1875 -0.5625,0.34375 h -0.34375 l -0.34375,-0.5 -0.46875,-0.40625 -0.90625,-0.0625 -0.15625,0.6875 0.0625,0.28125 1,1.3125 1.375,1.4688 2.9062,2.2188 1.125,1.1875 0.90625,0.53125 1.7188,0.71875 2.5625,1.375 0.78125,0.21875 h 0.28125 l 2.0625,-0.96875 0.78125,0.0625 1.0938,0.84375 1.4062,2.125 0.84375,1 0.0625,0.34375 -0.15625,1.1562 0.0937,0.375 0.40625,0.46875 0.84375,0.40625 2.5625,0.5625 1.0312,0.84375 0.78125,0.96875 0.8125,0.5625 0.84375,0.1875 2.0938,-0.125 2.625,0.5 0.96875,-0.375 1.6562,-0.875 1.0625,-0.15625 1.1875,0.15625 2.8438,1.0312 2.125,0.46875 2.0938,-0.25 2.5625,-1.3438 1.75,-0.40625 0.46875,-0.34375 0.625,-0.84375 2.6562,-1.0938 1.0312,-0.21875 2.7188,-1.25 0.75,-0.5625 0.625,-0.8125 1.9688,-3.8438 0.625,-0.6875 1.5938,-0.5625 1.9375,-0.125 0.625,-0.21875 0.625,-1.25 0.96875,-3.0312 0.40625,-0.5625 0.96875,-0.0625 2.0938,0.40625 h 0.40625 l 0.84375,-0.5 0.21875,-0.28125 0.28125,-0.6875 0.125,-1.3125 0.34375,-1.125 1.1875,-2.2188 1.375,-4.1562 1.9688,-2.8438 1.25,-3.1875 0.75,-1.1875 0.625,-0.78125 0.5,-0.40625 1.25,-0.46875 c 0,0 0.4197,-0.39765 0.8125,-0.71875 0.3493,-0.2865 0.6875,-0.53125 0.6875,-0.53125 l 1.625,-1.0625 0.8125,-0.46875 0.90625,-0.15625 2.5625,-0.75 1.25,-0.5 3.0625,-0.75 1.3125,-0.84375 1.4688,-1.875 1.875,-1.25 0.90625,-0.40625 2.0938,-0.4375 1.7812,-0.1875 1.4062,0.125 1.4375,0.5625 h 0.34375 l 0.625,-0.28125 0.78125,-1.0312 0.625,-0.21875 0.40625,0.15625 0.78125,0.625 0.6875,0.25 h 0.75 l 0.78125,-0.59375 0.46875,-1 0.5625,-0.75 0.5625,-0.34375 2.3438,-0.5625 1.6875,0.0625 0.96875,0.5 2.625,2.8438 0.5625,0.84375 0.5,0.40625 1.25,0.21875 h 0.34375 l 0.625,-0.28125 0.96875,-0.84375 0.625,-1.25 0.46875,-1.5938 0.5625,-3.3438 0.34375,-1.1562 0.78125,-1.625 1.0938,-1.25 1.25,-0.96875 1.25,-0.40625 1.4062,-0.34375 0.90625,-0.40625 0.1875,-0.28125 0.71875,-2.8438 0.46875,-1 0.84375,-0.46875 0.75,-0.0625 1.6562,0.40625 h 0.375 l 1.3125,-0.96875 0.6875,0.28125 2.0938,1.7188 0.40625,0.0937 0.21875,-0.21875 0.1875,-0.34375 -0.125,-0.6875 -0.84375,-1.4062 -0.125,-0.34375 0.0625,-0.6875 0.28125,-0.6875 0.46875,-0.5 0.84375,-0.5 3.0625,-0.1875 0.46875,-0.4375 0.15625,-0.34375 -0.0625,-0.34375 -0.5625,-0.40625 -1.5312,-0.5 -0.6875,-0.625 -0.0625,-0.6875 0.0625,-0.90625 0.1875,-0.8125 0.4375,-1.0625 0.75,-1.0938 0.6875,-0.71875 3.9688,-2.8438 1.875,-1.6562 0.96875,-0.34375 1.125,-0.0312 0.6875,-0.21875 2.2812,-0.0625 3.5625,0.5625 2.2812,0.75 2.2188,1.1875 1.8125,0.625 0.96875,0.5625 2.2812,1.5 1.3125,0.625 2.5,3.4062 1.125,2.3125 0.5625,0.40625 1.25,0.21875 3.6875,-1.0625 1.9375,-1.0312 0.90625,0.0625 0.96875,0.5 0.90625,0.125 1.0312,-0.0625 0.5,-0.40625 0.40625,-0.625 0.28125,-0.71875 0.28125,-1.25 0.53125,-0.875 0.5,-0.5 0.90625,-0.34375 h 3.8125 l 0.34375,0.125 1.3125,1.0625 1.0625,0.40625 3.125,0.40625 h 0.75 l 2.5,0.5625 h 0.40625 l 0.375,-0.0625 0.46875,-0.40625 0.40625,-0.5625 0.375,-1.125 0.46875,-0.96875 0.78125,-0.625 1.0312,-0.21875 2.1562,-0.0625 1.25,0.0625 2.5,-0.25 2.625,-1.8125 2.0938,-0.96875 0.75,-0.5625 0.28125,-0.6875 -0.0625,-0.78125 -1.4688,-1.5938 -1.4375,-2.0625 -1.0625,-2.0938 -0.125,-1.8125 0.125,-3.6875 c 0,0 0.0541,-0.52955 0.15625,-1.0938 0.0975,-0.5469 0.1875,-1.125 0.1875,-1.125 l 0.4375,-1.0938 0.28125,-1.25 -0.21875,-1.4062 v -0.8125 l 0.125,-0.84375 0.4375,-0.5 0.34375,-0.125 2.7188,-0.6875 0.8125,-0.5 0.15625,-0.28125 -0.0937,-0.6875 -1.1562,-1.5938 -0.15625,-1.125 0.15625,-0.40625 0.34375,-0.625 0.5625,-0.40625 0.625,-0.15625 1.5,-0.125 h 0.78125 l 0.46875,0.125 1.6875,0.6875 0.8125,0.15625 1.875,-0.15625 1.25,-0.40625 0.4375,-0.46875 0.28125,-0.78125 -0.28125,-3.3125 -1.25,-1.875 -0.4375,-0.90625 -0.6875,-1.0625 -0.5625,-0.40625 h -1.1562 l -2.2188,1.875 -0.78125,0.125 -0.40625,-0.125 -0.625,-0.34375 -1.4062,-1.6562 c -0.972,-1.5275 -2.337,-1.4096 -4.2812,-0.4375 -1.9442,0.972 -2.778,0.84365 -5,-0.40625 -2.222,-1.2499 -2.2306,-0.545 -3.9688,0.6875 -1.7403,1.2346 -0.32175,-1.8628 -0.34375,-2.2188 -0.0239,-0.3559 -1.9516,-0.2777 -3.0625,0 -1.111,0.2778 -5.5628,1.4029 -8.0625,1.125 -2.4997,-0.2778 -2.351,1.1078 -4.1562,2.2188 -1.8054,1.1109 -1.9375,2.5 -1.9375,2.5 l -1.125,3.25 -0.625,1.3125 -0.90625,1.0625 -0.90625,0.34375 -0.6875,0.125 -2.5,-0.125 -2.2188,-0.78125 -0.75,-0.6875 -2.5938,-1.3125 -2,-1.3125 -0.75,-0.96875 -0.28125,-0.625 -0.34375,-1 v -0.75 l 0.125,-0.28125 0.96875,-0.28125 0.28125,-0.28125 0.125,-0.28125 -0.1875,-0.625 -1.125,-0.75 -0.90625,-0.125 h -0.75 l -0.5625,0.40625 -0.46875,0.96875 -0.4375,3 -0.75,2.2812 -0.78125,1.0938 -0.6875,0.78125 -0.75,0.5625 -0.5,0.46875 -0.0625,0.40625 0.0625,0.71875 -0.0625,0.34375 -0.75,0.625 -0.71875,1.7188 -0.1875,0.28125 -0.84375,0.5625 -1.1875,0.5625 -5.1875,1.5312 -4.3125,2.2188 -2.3125,0.6875 -0.96875,0.21875 -0.8125,0.0625 -1.1875,-0.34375 -0.96875,-0.5 -1.5938,-1.25 -1.0625,-1.25 -1.3125,-0.34375 -1.875,-1.0312 -4.0312,-3 -1.1562,-1.1875 -3,-4.1562 -1.75,-1.9375 -1.7812,-2.2812 -1.8125,-2.7188 -1.9375,-2.5 -0.96875,-1.75 -1.125,-1.5938 -1.9375,-2.1562 -2.5,-3.3125 -1.25,-1.4688 -1.4688,-2.1562 -1.0938,-2.4375 -0.625,-0.75 -0.71875,-1.4688 -0.90625,-1.3125 -0.875,-0.90625 -0.5625,-0.8125 -1.5938,-3.5 -1.5312,-2.4688 -0.6875,-1.4688 -1.4062,-4.25 -1.25,-2.625 -1.5312,-2.0312 -1.1562,-2.3438 -0.375,-0.96875 -0.46875,-3.1875 -0.5,-2.0312 -2,-4.6562 -0.625,-3.4688 -0.5,-6.0312 -0.90625,-2.5 -0.1875,-0.96875 v -1.5938 l 0.46875,-1.0625 0.5625,-0.8125 1.0312,-0.84375 1,-0.34375 0.75,-0.5 0.90625,-0.96875 0.40625,-2.5625 0.15625,-0.34375 0.1875,-0.28125 0.28125,-0.0625 h 0.28125 l 0.5,0.5625 0.46875,1.9375 0.28125,0.1875 0.40625,0.0937 0.78125,-0.0937 2.2812,-1.25 3.9688,-1.1562 0.5625,-0.34375 1.4375,-1.125 2.2188,-2.4375 1.6875,-1.5312 0.90625,-1.5312 0.96875,-2.625 0.6875,-1.1875 1.1875,-1.1875 c 0,0 0.78075,-1.1312 1.1562,-1.6562 h 4.8125 c 0.022,0.2734 0,0.5 0,0.5 v 1.5938 l 0.28125,0.96875 0.53125,0.40625 1.3438,0.28125 0.90625,0.5 h 0.40625 l 0.28125,-0.21875 0.90625,-1.4688 0.6875,-0.6875 0.46875,0.21875 -0.0625,0.8125 -0.625,1.9688 -0.28125,0.625 -0.6875,0.75 -1.8125,1.25 -0.1875,0.34375 -0.15625,0.34375 -0.0625,2.0312 -1.125,1.1875 -0.25,0.46875 -1.0625,2.4375 -1.5312,2.2812 -1.0312,2.5 -0.34375,0.5625 -0.6875,0.6875 -0.78125,0.5625 -1.25,0.5625 -2.9062,0.90625 -4.0312,1.5312 -1.0312,0.8125 v 0.4375 l 0.6875,0.6875 -0.5,0.46875 -1.5938,0.5 -0.5625,0.40625 -0.34375,1.125 -1.375,0.90625 -0.40625,0.46875 -0.0937,0.78125 0.21875,0.25 0.5625,0.4375 0.8125,0.0625 0.5625,-0.21875 1.5938,-1.0938 0.4375,-0.0625 1.0938,-0.625 2.2188,-1.3438 1.8125,-0.75 1.125,-0.625 2.0625,-1.5312 0.96875,-0.96875 1.75,-2.5 1.25,-2.7812 2.4375,-4.8438 1.1875,-2.0312 1.1562,-1.7188 4.1875,-8 1.0938,-1.75 c 0,0 0.17015,-0.18495 0.34375,-0.40625 0.2387,-0.2995 0.5625,-0.625 0.5625,-0.625 l 1.4688,-1.25 1.5938,-1.6562 0.96875,-1.4062 1.0312,-1.9375 1.0625,-1.3125 1.0938,-0.625 1.9375,-0.5 1.25,-0.53125 2.5938,-1.4688 0.40625,-0.40625 1.6562,-1.0625 0.4375,-0.53125 1.25,-1 2,-3.25 1.125,-1.3125 1.4375,-2.375 1.75,-2 0.96875,-0.84375 1.1875,-0.5625 0.53125,-0.8125 1.5312,-1.25 1.8125,-0.84375 4.1562,-2.5 1.0625,-0.21875 h 1.1562 l 2.875,-0.53125 2.2188,-0.21875 1.5312,-0.625 1.375,-0.84375 0.625,-0.1875 0.75,0.0625 2.0312,0.96875 0.90625,0.125 0.75,-0.0625 0.96875,-0.28125 2.1562,-1.0312 0.6875,-0.0625 0.84375,0.0625 0.96875,0.46875 0.21875,0.21875 0.84375,1.4062 1.0938,1.1562 0.0625,0.78125 -0.125,1.25 0.21875,0.625 0.40625,0.125 0.125,-0.28125 0.28125,-1.3125 0.4375,-0.5625 0.25,-0.0625 0.4375,0.15625 0.0625,0.25 0.0625,0.84375 -0.1875,0.84375 0.25,0.0625 0.375,-0.6875 0.125,-2.0938 0.84375,-1.5938 0.90625,-1.4688 1.5,-1.7812 1.0625,-1.6875 1.5312,-1.7188 2.6875,-1.8125 1.5312,-0.625 1.9375,-0.625 1.4062,-0.84375 1.25,-1.0312 0.90625,-0.40625 h 3.125 l 1.0938,-0.15625 0.5,-0.40625 0.625,-1.3125 0.75,-0.5625 1.25,0.0625 1.125,0.34375 3.1875,-0.625 h 0.75 l 2.1562,0.5 0.78125,0.1875 1.25,1.125 1.0312,1.25 1.125,0.84375 0.6875,1.0312 0.21875,0.625 0.125,0.6875 -0.28125,2.1562 -0.34375,1.1875 -0.6875,1.25 -0.21875,0.75 v 0.84375 l -0.34375,0.6875 -0.28125,0.15625 -0.40625,-0.0937 -1.1875,-0.53125 0.5625,0.8125 0.5625,0.34375 0.25,0.21875 0.78125,-0.125 0.625,-0.78125 1.7188,-5.9688 0.5,-1.375 0.46875,-2.5 0.71875,-1.875 0.90625,-2.0312 0.125,-0.8125 -0.6875,-1.125 v -0.34375 l 0.125,-0.34375 0.28125,-0.15625 0.84375,0.0937 0.96875,-0.375 0.40625,-0.53125 0.4375,-1.0625 0.53125,-0.90625 0.5,-0.46875 1.375,-0.84375 1.25,-0.40625 1.3438,-1.5312 0.75,-0.5625 1.1875,-0.5625 1.5312,-1.1562 3.74996,-2.0312 2.6875,-1.0938 1.1875,-0.625 1.0313,-0.78125 1.4687,-1.3125 1.125,-0.625 1.875,-0.6875 1.0938,-0.0625 0.6875,0.25 2.25,1.6875 2.125,0.8125 0.2187,0.28125 0.062,0.71875 -0.625,1.4375 v 0.4375 l 0.2188,0.25 0.3437,0.0937 0.2813,-0.21875 1.5312,-2.2812 2.5625,-5.8438 0.3438,-0.5625 1.1875,-1.25 2.2812,-4.4375 1.9375,-2.8438 1.4688,-1.8125 1.5312,-2.8438 1.0313,-0.84375 0.5625,-0.25 0.7812,-0.0937 2,0.0937 h 0.4063 l 2.7187,0.8125 3.4688,-0.125 2.9062,0.28125 1.875,-0.71875 2.0938,-0.96875 2.2187,-1.3125 1.5938,-0.5625 2.5,-0.28125 3,0.90625 0.3437,-0.0625 1.3125,-0.96875 h 0.5625 l 2.1563,0.84375 1.6562,0.28125 1.1875,-0.5625 0.9063,-1.0625 0.5625,-0.1875 h 0.4062 l 1.9375,1.375 2.2188,1.1875 0.3437,0.5625 -0.125,0.90625 -0.2187,0.6875 -0.9063,1.0312 -0.125,0.34375 -0.1562,0.84375 0.375,0.0625 0.5312,-0.34375 1.0625,-1.25 0.9063,-1.6562 1.0312,-1.3125 2,-3.2188 0.9063,-0.96875 0.2812,-0.1875 c -0.018,-0.119 -0.8437,-5.5342 -0.8437,-8.2812 0,-2.7774 1.9689,-4.705 4.4687,-6.0938 2.4996,-1.3887 0.8091,-3.8926 0.5313,-5.2812 -0.2776,-1.3887 -2.1984,-0.2778 -5.5313,0 -3.3331,0.2778 2.1981,-8.6288 3.0313,-11.406 0.8333,-2.7775 -0.5314,-12.168 -0.5313,-15 0,-1.3887 -0.5759,-3.316 3.3125,-3.5938 1.9399,-0.1388 2.7847,-0.54525 3.0625,-1.6562 0.2777,-1.111 0.5627,-1.4098 3.0625,-1.6875 2.4997,-0.2777 12.222,-3.889 12.5,-5 0.2777,-1.111 0.5454,-1.6564 1.6563,-1.6562 1.1111,0 4.1738,-1.1043 5.5625,-1.9375 0.562,-0.3364 1.0603,-2.4439 1.5312,-5 0.6943,-3.7671 1.3156,-8.5116 1.8125,-10 0.8332,-2.4999 1.6566,-2.7882 4.1563,-3.3438 2.4997,-0.5555 6.0939,-1.6494 8.5937,-1.0938 2.4996,0.5554 15.556,-0.5696 17.5,-1.125 1.9442,-0.5555 0.2956,-1.1041 3.9063,0.5625 3.6107,1.6664 6.3924,1.3922 7.7812,0.28125 1.3887,-1.111 3.3199,-1.9482 8.875,-2.7812 5.5548,-0.8334 5.8373,0.55895 10.281,0.28125 4.444,-0.2778 3.8714,-1.9622 3.5937,-3.9062 -0.2779,-1.9444 10e-5,-5.2746 0.2813,-7.2188 0.2778,-1.9443 -1.6426,-4.1774 -3.0313,-5.8438 -1.3888,-1.6666 2.2051,-2.4828 3.5938,-3.5938 1.3887,-1.111 0.5555,-1.9518 0,-5.5625 -0.027,-0.17898 -0.059,-0.38656 -0.062,-0.59375 H 378.55924 z m -292.249999,20.1 c -0.1687,0.2402 -0.3751,0.4884 -0.625,0.75 0.2623,-0.2575 0.4544,-0.5071 0.625,-0.75 z m 718.809999,191.16 1.125,0.46875 0.90625,0.5625 1.1875,1.1875 2.2812,2.7812 0.34375,0.46875 1.5938,4.375 0.34375,0.5625 1.8125,1.0312 0.75,6.25 0.375,0.5 0.625,-0.28125 0.40625,-1.0312 -0.15625,-6.5938 -1.5938,-0.4375 -0.28125,-0.1875 -0.34375,-0.5625 0.15625,-0.5 1.5312,-2.2188 h 0.6875 l 1.1875,1.5312 2.625,0.75 0.34375,0.21875 0.5,0.40625 0.5625,1.125 0.46875,0.5 2.9062,1.0938 1.5938,1.1875 0.4375,0.125 2.6875,-1.7812 0.625,-2.4375 1.125,-0.78125 0.5,0.4375 1.0312,1.6562 0.625,0.75 0.28125,0.625 -0.28125,1.125 -1.25,5.4062 -2.8438,-2.5625 -1.1875,2.2188 -0.34375,-0.0625 -0.15625,-0.6875 0.5625,-1.4062 v -0.75 l -0.34375,-0.21875 h -0.28125 l -0.625,0.28125 -0.6875,1.25 -1.5938,1.6562 -0.125,2.375 2.0625,2.8438 0.15625,0.28125 -0.15625,0.5625 -2.6875,-1.0625 -1.5312,2.3125 -0.15625,0.40625 0.15625,1.125 0.90625,0.53125 2.8438,-0.40625 0.8125,0.21875 0.28125,0.46875 0.15625,0.78125 -0.5,1.5312 -0.0625,0.8125 0.6875,0.6875 0.625,-0.1875 0.21875,-0.21875 0.625,-1.9375 0.40625,-0.625 0.5625,-0.21875 2.8438,0.34375 1.375,-0.34375 0.4375,-0.46875 0.625,-1.4062 2.625,-6.7188 0.15625,-0.34375 -0.21875,-2.3125 -0.625,-1.5312 -0.21875,-0.625 -0.1875,-3.8125 0.1875,-0.625 5.0625,-1.5938 2.25,1.125 3.5312,3.0312 0.5625,1.9688 0.40625,2.5 -0.21875,0.25 -0.28125,0.15625 -0.8125,-0.0625 -0.5625,-0.34375 -1.875,-1.875 -0.96875,0.28125 -2.375,1.1562 -1.375,0.28125 -0.28125,0.625 0.34375,0.625 1.75,0.6875 0.75,2.6562 2.7188,2.4375 0.6875,1.0312 0.6875,-0.0625 0.4375,-0.5625 0.1875,-1.6562 0.15625,-0.375 0.28125,-0.1875 h 0.25 l 0.28125,0.1875 1.4688,2.5938 0.5,1.1562 0.53125,5.5 0.21875,1.0312 1.0312,1.25 0.4375,4.25 0.1875,1.4688 -1.3125,4.1562 0.21875,0.6875 0.5625,0.34375 h 0.34375 l 0.34375,-0.0312 1.375,-1.375 0.78125,-2.3125 0.46875,-0.40625 0.84375,0.0312 1.375,1.0312 1.1875,2.25 0.6875,2.6875 1.5938,3.1875 1.9688,2.5938 2.9062,6.25 2.3438,2.125 0.5,1.25 2.625,3.6875 2.1562,2.7812 0.78125,1.125 3.9375,4.6562 1.25,1.4375 3.2188,4.0938 3.875,5.9062 2.2812,1.5312 1.6875,2.7812 0.53125,0.40625 1.25,0.28125 0.375,0.28125 1.3125,1.8125 0.5625,0.40625 0.34375,0.15625 h 1.5312 l 0.46875,0.46875 1.0312,0.40625 0.90625,0.625 0.21875,0.5625 -5,2.6562 -0.625,-0.34375 -0.5,-0.4375 -0.875,-1.375 -3.9688,-1.4062 -1.9375,-0.96875 -2.5,-0.625 -1.0625,-0.40625 -4.0938,-1.9375 -3.4688,0.75 -0.5625,-0.6875 -3.9375,-2.7812 -0.34375,-0.5625 -0.0937,-1.0938 -0.40625,-0.90625 -2.1562,-2.0312 -0.1875,-0.28125 0.0625,-0.6875 0.46875,-0.5625 3.8438,-1.7812 1.0312,-1.3125 0.28125,-1.125 -2.4375,-8.125 -2.375,-4.3125 -0.0625,-0.28125 -0.46875,-0.46875 -2.9375,-1.875 -0.28125,-0.5625 -1.5,-3.3438 -0.71875,-0.1875 h -0.40625 l -3.0625,0.625 -0.8125,-0.5625 -3,-2.6562 -1.3125,-0.1875 -0.15625,-0.34375 0.4375,-0.5625 2,-2.5625 -0.1875,-0.28125 -0.71875,0.125 -4.2188,2.4375 -2.4375,-0.96875 -1.5938,-0.15625 -1.5312,0.625 -0.34375,-0.125 0.0625,-0.40625 0.21875,-0.34375 1.7188,-1.9688 0.28125,-5.125 -0.1875,-0.625 -3.125,0.75 -2.7812,1.6875 -0.71875,0.125 -0.25,-0.125 0.34375,-1.5312 0.6875,-0.6875 0.28125,-0.71875 0.34375,-2.8438 1.1875,-0.6875 3.5312,-0.6875 0.28125,0.21875 0.2812,-0.28125 0.1875,-0.84375 -0.1875,-2.2188 -0.90625,-1.0312 -0.90625,1.6562 -0.6875,0.625 -5.6875,2.5 -0.71875,0.6875 -1.6562,2.6562 -2.7188,2.75 -1.5312,0.15625 -1.3125,1.5312 -1.9375,0.53125 -1.5312,0.625 h -0.40625 l -0.15625,-0.34375 0.28125,-0.625 0.96875,-0.75 1.875,-1.3125 0.28125,-1.9375 0.625,-0.78125 1.5938,-1.6562 0.15625,-0.34375 0.125,-1.9688 0.5,-0.40625 2.2812,-0.625 0.84375,-0.5625 2.2812,-5.75 -0.21875,-0.6875 -0.1875,-0.21875 -1.9375,-0.96875 -3.8438,-1.25 h -0.40625 l -0.34375,0.0625 0.0625,0.34375 2.375,3.0625 0.1875,0.6875 -0.34375,0.625 -0.1875,0.28125 -0.375,0.0625 -1.1562,-0.34375 h -0.4375 l -0.53125,0.28125 -0.5,0.96875 -0.96875,2.5625 -0.34375,0.5625 -0.5625,0.34375 -0.75,-0.1875 -0.78125,-1.0625 -0.625,-1.1562 -0.0625,-1.4062 0.46875,-1.9375 -0.8125,-0.0625 -1.8125,0.8125 -0.28125,0.21875 -0.34375,0.625 -0.34375,1.75 v 0.8125 l 0.34375,2.5 -0.125,0.84375 -0.625,0.0625 -0.4375,-1.6562 0.21875,-1.3125 -0.125,-0.375 h -0.28125 l -0.28125,0.21875 -0.6875,1.25 -0.28125,0.15625 -0.21875,-0.15625 0.21875,-1.3125 -0.0937,-0.40625 -0.125,-0.28125 -1.0312,1.3125 -0.5625,0.34375 -0.21875,-0.28125 0.0625,-0.34375 1.25,-3.4062 1.6875,-0.5625 0.28125,-0.6875 0.46875,-0.90625 -0.8125,-1.8125 -2.375,-1.0312 -0.84375,-0.625 v -0.40625 l 0.5625,-0.28125 1.0312,-0.15625 v -0.34375 l -1.5,-2.4062 -0.71875,-0.71875 -0.75,-0.125 -0.34375,0.0625 -0.21875,0.21875 -0.28125,0.75 -0.28125,1.6875 -0.53125,0.40625 -1.25,-0.21875 -1.4062,-0.96875 0.21875,-3.1875 -0.21875,-0.6875 -0.5625,-0.15625 -0.1875,0.34375 -0.5625,1.4688 -1.125,2.2812 -1.6562,0.34375 -0.21875,-0.1875 v -0.84375 l 0.625,-0.75 0.15625,-0.4375 -0.0625,-0.40625 -0.4375,-0.40625 -3.8125,-0.5 -0.75,0.0625 -0.4375,-0.0625 -2.7812,-1.0938 0.0937,0.40625 0.125,0.21875 1.0312,0.875 0.78125,1.0625 3.1875,1.6562 0.5625,0.40625 0.46875,0.84375 0.5625,3.5312 -0.0625,0.78125 -0.15625,0.40625 -0.75,0.5625 -2.5625,0.6875 -0.625,-0.0625 -0.5,-0.5 -1.8125,-3.0312 0.0937,-0.4375 0.34375,-0.0625 1.375,0.625 0.6875,-0.125 1.1875,-2.1562 -0.1875,-0.28125 -1.4062,-0.90625 -4.4375,-3.6875 -2.2188,-1.875 -1.4688,-1.8125 -0.6875,-0.6875 -4.875,-0.6875 -0.75,0.5625 -0.125,0.40625 0.0625,0.6875 0.40625,0.5 0.78125,0.21875 h 1.5938 l 0.875,0.1875 0.21875,0.21875 -0.21875,0.75 -1.375,1.6875 1.125,1.1562 0.34375,0.5625 -0.0937,0.4375 -0.75,0.6875 -0.625,0.1875 -0.75,-0.125 -0.78125,-0.625 -0.34375,-0.5625 -0.625,-1.4375 -0.34375,-0.5625 -1.4688,-0.0625 -1.1562,1.5938 -0.71875,0.0625 -0.46875,0.46875 h -0.28125 l -0.21875,-0.25 0.21875,-0.78125 v -0.34375 l -0.21875,-0.84375 1.1875,-1.0938 -0.0625,-0.84375 -0.0625,-0.34375 -1.6875,-1.4688 -1.4375,-1.7188 -0.0937,-0.4375 0.15625,-0.34375 0.8125,-1.875 -0.625,-2.3438 -0.53125,-0.40625 -1.1875,-0.28125 -1.1875,-0.84375 -0.28125,0.21875 -0.0625,4.7188 -0.625,0.75 h -0.75 l -1,-1.25 -2.8438,-1.5312 -1.7188,-4.1562 -0.15625,-0.34375 -0.6875,-2.5625 0.6875,0.1875 0.96875,0.5 h 0.4375 l 1.0312,-2.375 0.21875,-0.28125 1.3125,-0.25 0.6875,-0.78125 0.28125,-0.0625 0.6875,0.21875 1.5938,1.6562 3.2188,0.75 0.90625,-0.40625 0.625,-0.75 0.25,-0.15625 0.4375,0.15625 0.90625,0.96875 0.53125,0.28125 0.84375,0.125 2.8438,0.125 0.625,0.375 0.5,0.46875 0.40625,0.84375 1.375,3.0625 1.875,1.7812 0.84375,1.4688 0.34375,0.0625 0.28125,-0.1875 0.96875,-1.9688 0.6875,0.0937 0.84375,1.7812 0.34375,0.5625 0.28125,0.21875 h 0.40625 l 3.0625,-0.28125 -2.5625,-4.0938 -0.6875,-0.28125 -0.90625,-1.5312 h 0.34375 l 1.0312,0.40625 h 0.4375 l 0.40625,-0.40625 h 2.8438 l -0.0625,3.875 h 0.34375 l 2.4375,-2.5625 v -1.8125 l -0.84375,-0.25 -0.28125,-0.15625 -2.2812,-3.125 -0.15625,-0.6875 0.28125,-4.875 0.28125,-0.125 0.34375,-0.0312 v -0.0312 z"
     inkscape:connector-curvature="0"
     style="opacity:0.98999999000000005;fill:#ffd500;stroke:none" />
</svg>
